<svg width="133px" height="166px" viewBox="0 0 133 166" version="1.1" xmlns="http://www.w3.org/2000/svg" xmlns:xlink="http://www.w3.org/1999/xlink">
    <!-- Generator: Sketch 50.2 (55047) - http://www.bohemiancoding.com/sketch -->
    <desc>Created with Sketch.</desc>
    <defs></defs>
    <g id="Possible-website-layout" stroke="none" stroke-width="1" fill="none" fill-rule="evenodd">
        <g id="Mobile-website" transform="translate(-168.000000, -289.000000)" fill-rule="nonzero">
            <g id="Graphic-out-of-the-box" transform="translate(232.000000, 372.000000) scale(-1, 1) translate(-232.000000, -372.000000) translate(151.000000, 257.000000)">
                <rect id="Rectangle" fill="#D8D8D8" opacity="0" x="0" y="0" width="162" height="230"></rect>
                <g id="Open-box" transform="translate(53.000000, 144.000000)">
                    <polygon id="Path-9" fill="#A6A6A6" points="0.00164794741 44.172972 41.7448308 53.8786578 61.9823161 45.8112917 19.8445479 35.5900539"></polygon>
                    <polygon id="Path-8" fill="#9A785D" points="8.05929833 5.86288436 24.3302723 0.240582494 57.1094984 6.34301632 41.5000185 13.6030786"></polygon>
                    <path d="M39.50898,11.3379432 L35.6011522,11.3379432 C35.4213921,11.3379432 35.2754998,11.4966355 35.2754998,11.6921671 C35.2754998,11.8880528 35.4213921,12.0463909 35.6011522,12.0463909 L39.50898,12.0463909 C39.6887401,12.0463909 39.8346324,11.8880528 39.8346324,11.6921671 C39.8346324,11.4966355 39.6887401,11.3379432 39.50898,11.3379432 Z M39.50898,13.4632863 L35.6011522,13.4632863 C35.4213921,13.4632863 35.2754998,13.6216244 35.2754998,13.8175102 C35.2754998,14.013396 35.4213921,14.171734 35.6011522,14.171734 L39.50898,14.171734 C39.6887401,14.171734 39.8346324,14.013396 39.8346324,13.8175102 C39.8346324,13.6216244 39.6887401,13.4632863 39.50898,13.4632863 Z M39.8346324,8.50415235 C39.4751121,8.50415235 39.1833276,8.1867678 39.1833276,7.79570466 L39.1833276,6.37880925 L41.1372417,8.50415235 L39.8346324,8.50415235 Z M41.1372417,15.5886295 C41.1372417,15.9796926 40.8454572,16.2970771 40.4859369,16.2970771 L34.6241953,16.2970771 C34.264675,16.2970771 33.9728904,15.9796926 33.9728904,15.5886295 L33.9728904,7.08725694 C33.9728904,6.6961938 34.264675,6.37880925 34.6241953,6.37880925 L38.5229047,6.37880925 C38.5170431,7.22717536 38.532023,7.79570466 38.532023,7.79570466 C38.532023,8.57818516 39.1152663,9.21260007 39.8346324,9.21260007 L41.1372417,9.21260007 L41.1372417,15.5886295 Z M39.1833276,5.67036153 L39.1833276,5.68027981 C39.1416442,5.68027981 38.9677459,5.66292284 38.532023,5.67036153 L34.6241953,5.67036153 C33.9048292,5.67036153 33.3215859,6.30477644 33.3215859,7.08725694 L33.3215859,15.5886295 C33.3215859,16.3711099 33.9048292,17.0055249 34.6241953,17.0055249 L40.4859369,17.0055249 C41.205303,17.0055249 41.7885463,16.3711099 41.7885463,15.5886295 L41.7885463,8.50415235 L39.1833276,5.67036153 Z" id="Fill-222-Copy-4" fill="#52C7DB" transform="translate(37.555066, 11.337017) rotate(-27.000000) translate(-37.555066, -11.337017) "></path>
                    <polygon id="Path-3" fill="#CEA07B" points="8.66671414 43.599969 40.9888429 50.687407 40.9888429 12.8229164 8.66671414 5.97165188"></polygon>
                    <polygon id="Path-5" fill="#AD8769" points="40.9878214 50.6846813 56.5006139 44.4897584 56.5006139 6.77450392 40.9878214 12.8774787"></polygon>
                    <polygon id="Path-4" fill="#E3B188" points="41.0872615 12.828902 35.8640174 25.9196005 2.29588136 18.5959146 8.05856329 5.85741723"></polygon>
                    <polygon id="Path-7" fill="#CEA07B" points="41.058732 12.8456274 45.6864218 26.1642862 60.918076 18.6545053 57.0949525 6.3468985"></polygon>
                </g>
                <ellipse id="in_box-man-shadow" fill="#A6A6A6" cx="27.5" cy="162" rx="14.5" ry="1"></ellipse>
                <g id="in_box-man" transform="translate(17.000000, 113.000000)">
                    <path d="M5.51876581,3.76539304 C5.96999147,6.89089874 6.31808355,9.01198281 6.56304204,10.1286452 C7.28871778,13.4366947 8.00314519,15.0400121 8.1285926,15.1733607 C8.46005734,15.5257025 15.2678213,15.1733607 15.6920486,15.1733607 C15.9092816,15.1733607 15.8203607,9.19621076 15.1172626,9.19621076 C12.0457038,9.19621076 11.6694502,11.3906469 10.0002231,11.3438498 C9.01903221,11.3163419 8.68247938,10.1076503 9.10153884,9.04426094 C9.7070641,7.50770301 10.4421927,7.27400731 12.1368677,7.00260947 C13.4075133,6.79911889 13.4378465,7.42277263 14.8131435,7.97953377 C15.4902466,8.25364523 15.922999,8.44625263 16.275064,8.11486927 C16.5709631,7.83635246 15.6976193,7.1269157 16.1090717,6.75973345 C17.4217855,5.58826091 19.6206444,6.3134505 19.6206444,5.23171284 C19.6206444,4.82738664 17.9009964,3.08348237 14.4617003,3.19744231e-14 L5.51876581,3.76539304 Z" id="Path-2" fill="#F6A77D"></path>
                    <path d="M31.2944226,12.6311659 C31.3692452,12.6311659 31.4812402,12.2886361 31.5090015,12.1363456 C31.7173359,10.993483 31.2457321,10.6613717 31.5090015,9.71832833 C31.6190517,9.32412351 32.0325138,9.21077827 32.0614698,9.58780152 C32.1281255,10.4556952 32.1603083,12.2404247 32.1918241,12.5214435 C32.197942,12.575995 32.2471981,12.6051306 32.2710904,12.6051306 C32.3045722,12.6051306 32.3177685,12.5351106 32.3225079,12.4464313 C32.3542471,11.852565 32.1298576,11.6293223 32.2890257,11.0306506 C32.36582,10.7418081 32.7392058,10.7543974 32.7594118,11.0306506 C32.8100389,11.7228233 32.8511721,13.2084023 32.8511721,13.2084023 C32.8511721,13.2084023 32.6921387,13.5802623 32.6747083,13.6565849 C32.5310153,14.2857728 32.7918473,14.145436 32.0629229,15.0534851 C31.1418905,16.200851 31.5829974,16.1598861 30.5161332,16.8038047 C30.0022746,17.1139501 29.5102862,16.9159737 28.9556566,17.1460875 C28.1018162,17.5003428 28.0709824,18.6681078 27.3801421,18.4936895 C26.4759584,18.2654077 25.8281088,17.2035977 25.7114299,16.156213 C25.6432822,15.5444749 26.151469,15.9270542 26.5740654,15.3329764 C26.7424296,15.0962933 26.7471499,14.9583601 26.5740654,14.6825335 C26.0976204,13.9232726 26.3202698,14.1827822 25.9797226,13.3976664 C25.711887,12.780184 25.2493017,12.2947754 25.6356483,12.1152587 C26.0741134,11.9115251 26.4900699,12.0110585 27.0069199,12.6311659 C27.6591137,13.4136567 27.4368348,14.0916855 27.8923848,14.360557 C28.1590223,14.5179301 28.2982139,14.1293231 28.5918173,13.7756761 C29.0772337,13.1909892 29.0577757,12.8495146 29.0943674,12.6487842 C29.3027017,11.5059215 28.8310979,11.1738102 29.0943674,10.2307669 C29.2044175,9.83656205 29.7394991,9.85374363 29.7684551,10.2307669 C29.8085593,10.7529465 29.8445065,11.6059874 29.8686383,12.2645544 C29.8700656,12.3035092 29.8954045,12.6128255 29.9969171,12.6051306 C30.0817971,12.6051306 30.1615756,12.3634032 30.1675381,12.3219527 C30.3758725,10.873628 29.9042687,10.4527506 30.1675381,9.25765249 C30.2775883,8.75808538 30.9353102,8.57085664 30.9642662,9.04864988 C30.9879514,9.43946722 31.0096911,10.1029013 31.0524103,10.8513639 C31.0801614,11.3375826 31.1241013,11.9318596 31.1581745,12.2645544 C31.1980058,12.6534753 31.2708362,12.6311659 31.2944226,12.6311659 Z" id="Path" fill="#F6A77D"></path>
                    <path d="M8.68765823,16.5067151 L15.2420028,16.0275887 L15.2420028,17.6262279 C18.1630006,18.6429471 19.7149175,19.1513067 19.8977536,19.1513067 C20.0805897,19.1513067 21.8711241,17.709811 25.2693568,14.8268196 L28.3702347,19.1513067 L20.3858273,24.1279927 L16.8182249,22.4085429 L20.3858273,34.4808456 L7.98625748,35.6361722 L8.45938685,23.3753867 L6.08717099,25.7221574 L0.16361085,23.7993876 L8.68765823,18.8729946 L8.68765823,16.5067151 Z" id="Path-6" fill="#3A2C2F"></path>
                    <rect id="Rectangle" fill="#E14129" x="7.91463415" y="45.9064327" width="1.82439024" height="1"></rect>
                    <rect id="Rectangle-Copy-2" fill="#E14129" x="15.4" y="45.9064327" width="1.6097561" height="1"></rect>
                    <path d="M9.02974224,34.6870406 C9.11663331,36.7539377 9.16007886,38.0449737 9.16007886,38.5601488 C9.16007886,39.0525918 6.94340221,42.7717678 6.94340221,43.2559775 C6.94340221,43.8723257 6.94340221,44.8723643 6.94340221,46.2560933 C8.60884004,46.2560933 9.94370316,46.3388389 10.9479916,46.5043301 C11.2949579,44.183581 13.1781732,41.5008857 13.3279867,38.8888889 C13.3977326,37.6728693 13.4610803,36.426286 13.5180299,35.1491389 L14.1266563,35.8613377 L14.3671798,45.9138363 L17.9427931,45.9138363 L17.9427931,33.670419 L9.02974224,34.6870406 Z" id="Path-15" fill="#3A2C2F"></path>
                    <path d="M7.86063002,46.6418325 L7.7804878,48.6960681 L8.81140563,48.8111877 L8.92344857,48.1652655 C9.25009682,48.3551348 9.45963955,48.5050962 9.55207673,48.6151497 C10.1085102,49.2776251 10.3268231,49.7499436 10.5748946,49.8335617 C11.6967014,50.2116921 13.8279069,49.3911781 13.8279069,49.2375681 C13.8279069,48.4765269 12.4267613,48.8632749 11.3477925,48.2951795 C10.7153766,47.9622018 10.1903531,47.5646234 9.77272184,47.1024444 L9.77272184,46.4912281 L7.86063002,46.6418325 Z" id="Path-16" fill="#3A2C2E"></path>
                    <path d="M15.3728251,46.203236 L15.2926829,48.2574716 L16.0553081,48.3725912 L16.167351,47.726669 C16.4939993,47.9165383 16.703542,48.0664997 16.7959792,48.1765532 C17.3524126,48.8390287 18.2233408,49.065907 18.4714124,49.1495251 C19.5932192,49.5276553 21.340102,48.3677863 21.340102,48.2141763 C21.340102,47.4531351 19.8635709,48.2068567 18.7846022,47.6387614 C18.1521863,47.3057836 17.5628604,46.9808126 17.0166243,46.663848 L17.0166243,46.0526316 L15.3728251,46.203236 Z" id="Path-16-Copy" fill="#3A2C2E"></path>
                    <path d="M7.08748547,29.6009842 C7.1622884,29.6009842 9.19898006,32.6626237 9.19898006,33.0155594 C9.19898006,33.9318026 6.30457195,35.9063056 5.52052085,34.4032681 C5.4146426,34.200298 5.32306237,33.4558716 5.58791653,33.2435313 C5.92124267,32.976295 6.32335681,33.312733 6.55773062,33.0155594 C6.78348926,32.7293094 6.90720457,32.4296047 6.50818144,32.0766836 C6.10728972,31.7221099 5.53241445,31.5911129 4.78355565,31.6836924 C6.26964025,30.2952202 7.03761686,29.6009842 7.08748547,29.6009842 Z" id="Path-14" fill="#F6A77D"></path>
                    <polygon id="Path-6-Copy" fill="#3A2C2F" points="8.68765823 22.9680425 6.08717099 25.7221574 8.52284285 27.7417548 8.52284285 29.1725118 4.83134998 32.1376544 0.16361085 23.7993876 8.68765823 18.8729946"></polygon>
                    <polygon id="Path-13" fill="#E14129" points="12.0949623 16.2673011 12.0949623 19.4835155 13.0215656 19.4835155 13.9218146 30.8719336 15.9109127 32.5025392 17.0893831 30.3592409 14.0746175 19.1176139 14.8634407 18.8368492 13.6134447 16.1512608"></polygon>
                </g>
                <g id="Closed-box" transform="translate(12.000000, 88.000000)">
                    <polygon id="Path-10" fill="#AD8769" points="0.268479677 25.1530612 8.76839053 28.8035091 8.76839053 7.27477248 0.268479677 3.8686132"></polygon>
                    <polygon id="Path-11" fill="#CEA07B" points="8.7600383 28.7992336 26.777111 24.5915798 27.8483482 3.61624472 8.7600383 7.09535339"></polygon>
                    <polygon id="Path-12" fill="#C59A77" points="0.264563927 3.86907306 8.77681148 7.38176582 27.8532827 3.61572405 18.4891275 0.257638271"></polygon>
                </g>
                <g id="Ideas" transform="translate(51.000000, 32.000000)">
                    <path d="M6.69726644,37.8031376 C7.01939424,37.8384248 7.08718301,38.1156773 7.07678302,38.2523428 C6.30436194,48.4026609 6.94771604,55.6431252 8.98318178,59.9526841 C10.4460192,63.0498546 12.5740179,65.2552024 17.4827992,69.353094 C17.47713,69.3483614 18.1303065,69.8933025 18.315746,70.0483082 C21.4558686,72.673083 23.069205,74.1824461 24.509928,76.020115 C26.386276,78.4134317 27.4092318,80.8610017 27.5244492,83.611864 C27.6843124,87.4286634 27.8843989,98.1241553 28.1250035,115.707706 C28.1268473,115.842461 28.0216907,116.119683 27.7176119,116.119683 C27.413533,116.119683 27.3012881,115.87754 27.2995944,115.75373 C27.0589422,98.1618162 26.8587573,87.4580256 26.6993345,83.651743 C26.593025,81.1135613 25.644998,78.8452691 23.8781726,76.5916504 C22.4863284,74.8163274 20.9042379,73.3361967 17.8085171,70.7485365 C17.6234334,70.5938283 16.9705759,70.0491531 16.9759767,70.0536618 C11.9702425,65.874833 9.78398809,63.609112 8.24661321,60.3541282 C6.12459299,55.8613131 5.46872642,48.4694944 6.25529136,38.1575689 C6.26522419,38.0273485 6.37513867,37.7678504 6.69726644,37.8031376 Z" id="Path" fill="#52C7DB"></path>
                    <path d="M46.8252878,121.325952 C46.4691305,121.325952 46.4150771,120.935754 46.4164658,120.743367 C46.5519248,101.977477 46.7681032,89.7092765 47.0653833,83.9307117 C47.2182624,80.9590291 48.4403112,78.5904479 50.6395922,76.5892543 C52.3273867,75.0534782 54.2731073,73.9109622 57.7144559,72.244123 C58.0296503,72.0914564 59.1010936,71.5762712 59.2515592,71.5036271 C61.979727,70.1864816 63.4540191,69.3722745 64.7601688,68.368391 C66.3850472,67.1195377 67.36755,65.7787623 67.7327889,64.1833458 C69.144101,58.0185292 69.8127235,52.4526586 69.7402404,47.4866668 C69.737642,47.3086438 69.8028413,46.9427549 70.1424078,46.9427549 C70.4819741,46.9427549 70.563579,47.2982663 70.566241,47.4832946 C70.6388139,52.527885 69.9611538,58.1648849 68.5348417,64.3952245 C68.1167018,66.2217198 67.0130459,67.7278267 65.240775,69.0899632 C63.876191,70.1387584 62.3669087,70.9722895 59.5901492,72.3128949 C59.4387075,72.3860102 58.3678986,72.9008905 58.0539561,73.0529505 C54.6797888,74.68725 52.784988,75.7998663 51.1734432,77.2662604 C49.1383362,79.118067 48.0296302,81.266967 47.8900742,83.9796691 C47.5938318,89.7380699 47.3778389,101.993597 47.2424773,120.738202 C47.2410595,120.934531 47.1814449,121.325952 46.8252878,121.325952 Z" id="Path" fill="#52C7DB"></path>
                    <path d="M31.5237342,119.100076 C31.1107595,119.100076 31.1107595,118.698132 31.1107595,118.49716 C31.1107595,109.24523 31.1107595,95.3673357 31.1107595,76.8634765 C31.1107595,72.4041621 31.8507595,69.3395191 33.2830523,67.3055382 C34.4332834,65.6721094 35.8712561,64.8025562 38.0904746,64.0981519 C38.430891,63.9900998 38.5086955,63.9671518 39.3548357,63.7213451 C41.1367199,63.2037019 41.9510239,62.8731756 42.7065484,62.2551255 C43.6601841,61.4750125 44.2248364,60.3272796 44.4117336,58.5594975 C44.9560422,53.4111089 45.2321323,49.7836874 45.2404749,47.6915762 C45.2413345,47.4760476 45.2324073,47.0813282 45.6473381,47.0813282 C46.0622689,47.0813282 46.0672056,47.4621391 46.0664042,47.6830906 C46.058648,49.8214492 45.7804919,53.4755147 45.2324073,58.6596185 C45.0210397,60.6588549 44.3474455,62.0280275 43.2069518,62.9609982 C42.3378433,63.6719642 41.4545915,64.0304766 39.5704548,64.5778245 C38.7325591,64.8212359 38.6559537,64.8438305 38.3245245,64.9490298 C36.2589644,65.6046613 34.9657234,66.3866943 33.9417695,67.8407985 C32.6323815,69.7002437 31.9367089,72.5813087 31.9367089,76.8634765 C31.9367089,95.3591941 31.9367089,109.230982 31.9367089,118.478841 C31.9367089,118.685919 31.9367089,119.100076 31.5237342,119.100076 Z" id="Path" fill="#52C7DB"></path>
                    <path d="M27.0636733,117.079692 L28.4021067,117.079692 C28.5541599,117.079692 28.6774232,117.212103 28.6774232,117.375441 C28.6774232,117.418605 28.6686279,117.461245 28.6516544,117.500369 L27.9824234,119.042955 C27.918194,119.191004 27.7543994,119.25509 27.6165782,119.186094 C27.5578689,119.156703 27.5106858,119.106017 27.4833262,119.04295 L26.8141238,117.500365 C26.7498967,117.352314 26.8095574,117.176365 26.9473798,117.107371 C26.9837997,117.08914 27.023493,117.079692 27.0636733,117.079692 Z" id="Rectangle" fill="#52C7DB"></path>
                    <path d="M30.9181038,120.037178 L32.2565371,120.037178 C32.4085903,120.037178 32.5318536,120.169589 32.5318536,120.332927 C32.5318536,120.376091 32.5230583,120.418732 32.5060848,120.457855 L31.8368538,122.000441 C31.7726244,122.14849 31.6088298,122.212576 31.4710086,122.14358 C31.4122993,122.114189 31.3651161,122.063503 31.3377565,122.000437 L30.6685542,120.457851 C30.604327,120.3098 30.6639878,120.133851 30.8018101,120.064857 C30.8382301,120.046626 30.8779233,120.037178 30.9181038,120.037178 Z" id="Rectangle-Copy" fill="#52C7DB"></path>
                    <path d="M47.3052283,123.636621 L46.5618598,123.941683 L45.9486175,122.528091 C45.8843903,122.380041 45.9440511,122.204091 46.0818734,122.135098 C46.1182934,122.116866 46.1579866,122.107419 46.1981671,122.107419 L47.5366004,122.107419 C47.6886535,122.107419 47.8119169,122.23983 47.8119169,122.403167 C47.8119169,122.446331 47.8031216,122.488972 47.7861481,122.528096 L47.3052283,123.636621 Z" id="Path" fill="#52C7DB"></path>
                    <path d="M6.05702777,34.8983364 L7.39546124,34.8983364 C7.5475143,34.8983364 7.67077769,35.0307475 7.67077769,35.194085 C7.67077769,35.237249 7.66198224,35.2798897 7.64500884,35.3190134 L6.97577781,36.8615991 C6.91154841,37.0096485 6.74775392,37.073734 6.60993257,37.0047379 C6.55122326,36.975347 6.50404021,36.9246613 6.47668067,36.8615947 L5.80747824,35.319009 C5.74325109,35.1709584 5.80291184,34.9950093 5.94073424,34.9260155 C5.97715409,34.9077838 6.01684745,34.8983364 6.05702777,34.8983364 Z" id="Rectangle-Copy-4" fill="#52C7DB" transform="translate(6.726212, 35.965413) scale(-1, 1) rotate(-180.000000) translate(-6.726212, -35.965413) "></path>
                    <path d="M44.959243,44.0665435 L46.2976763,44.0665435 C46.4497295,44.0665435 46.5729928,44.1989545 46.5729928,44.3622921 C46.5729928,44.405456 46.5641975,44.4480967 46.547224,44.4872204 L45.877993,46.0298062 C45.8137636,46.1778555 45.6499691,46.241941 45.5121478,46.1729449 C45.4534385,46.143554 45.4062553,46.0928683 45.3788958,46.0298017 L44.7096934,44.487216 C44.6454662,44.3391654 44.705127,44.1632163 44.8429493,44.0942226 C44.8793693,44.0759908 44.9190625,44.0665435 44.959243,44.0665435 Z" id="Rectangle-Copy-3" fill="#52C7DB" transform="translate(45.628427, 45.133620) scale(-1, 1) rotate(-180.000000) translate(-45.628427, -45.133620) "></path>
                    <path d="M69.4624076,44.0665435 L70.8008409,44.0665435 C70.9528941,44.0665435 71.0761574,44.1989545 71.0761574,44.3622921 C71.0761574,44.405456 71.0673621,44.4480967 71.0503886,44.4872204 L70.3811576,46.0298062 C70.3169282,46.1778555 70.1531336,46.241941 70.0153124,46.1729449 C69.9566031,46.143554 69.9094199,46.0928683 69.8820603,46.0298017 L69.212858,44.487216 C69.1486308,44.3391654 69.2082916,44.1632163 69.3461139,44.0942226 C69.3825339,44.0759908 69.4222271,44.0665435 69.4624076,44.0665435 Z" id="Rectangle-Copy-5" fill="#52C7DB" transform="translate(70.131591, 45.133620) scale(-1, 1) rotate(-180.000000) translate(-70.131591, -45.133620) "></path>
                    <ellipse id="Oval" fill="#A6A6A6" cx="75.2990506" cy="158.225508" rx="11.7009494" ry="1.77449168"></ellipse>
                    <path d="M22.8512658,65.6561922 C22.5473165,65.6561922 22.3006329,65.3912015 22.3006329,65.064695 C22.3006329,64.7381885 22.5473165,64.4731978 22.8512658,64.4731978 C23.1552152,64.4731978 23.4018987,64.7381885 23.4018987,65.064695 C23.4018987,65.3912015 23.1552152,65.6561922 22.8512658,65.6561922 Z M22.8512658,63.8817006 C22.2430918,63.8817006 21.75,64.4113863 21.75,65.064695 C21.75,65.7180037 22.2430918,66.2476895 22.8512658,66.2476895 C23.4594399,66.2476895 23.9525316,65.7180037 23.9525316,65.064695 C23.9525316,64.4113863 23.4594399,63.8817006 22.8512658,63.8817006 Z M28.9082278,67.7642884 L27.2563291,65.9519409 L24.5194082,68.9422551 L23.4018987,67.7264325 L21.1993671,69.8963401 L21.1993671,63.8817006 C21.1993671,63.5551941 21.4460506,63.2902033 21.75,63.2902033 L28.3575949,63.2902033 C28.6615443,63.2902033 28.9082278,63.5551941 28.9082278,63.8817006 L28.9082278,67.7642884 Z M28.9082278,70.9796673 C28.9082278,71.3061738 28.6615443,71.5711645 28.3575949,71.5711645 L26.9347595,71.5711645 L24.9062278,69.3634011 L27.2563291,66.8388909 L28.9082278,68.6133826 L28.9082278,70.9796673 Z M21.75,71.5711645 C21.4460506,71.5711645 21.1993671,71.3061738 21.1993671,70.9796673 L21.1993671,70.7019593 L23.3867563,68.5974122 L26.1553386,71.5711645 L21.75,71.5711645 Z M28.3575949,62.6987061 L21.75,62.6987061 C21.1418259,62.6987061 20.6487342,63.2283919 20.6487342,63.8817006 L20.6487342,70.9796673 C20.6487342,71.632976 21.1418259,72.1626617 21.75,72.1626617 L28.3575949,72.1626617 C28.965769,72.1626617 29.4588608,71.632976 29.4588608,70.9796673 L29.4588608,63.8817006 C29.4588608,63.2283919 28.965769,62.6987061 28.3575949,62.6987061 Z" id="Fill-217" fill="#52C7DB" transform="translate(25.053797, 67.430684) rotate(13.000000) translate(-25.053797, -67.430684) "></path>
                    <path d="M49.0063291,52.3475046 C48.7023797,52.3475046 48.4556962,52.0825139 48.4556962,51.7560074 C48.4556962,51.4295009 48.7023797,51.1645102 49.0063291,51.1645102 C49.3102785,51.1645102 49.556962,51.4295009 49.556962,51.7560074 C49.556962,52.0825139 49.3102785,52.3475046 49.0063291,52.3475046 Z M49.0063291,50.5730129 C48.3981551,50.5730129 47.9050633,51.1026987 47.9050633,51.7560074 C47.9050633,52.4093161 48.3981551,52.9390018 49.0063291,52.9390018 C49.6145032,52.9390018 50.1075949,52.4093161 50.1075949,51.7560074 C50.1075949,51.1026987 49.6145032,50.5730129 49.0063291,50.5730129 Z M55.0632911,54.4556007 L53.4113924,52.6432532 L50.6744715,55.6335675 L49.556962,54.4177449 L47.3544304,56.5876525 L47.3544304,50.5730129 C47.3544304,50.2465065 47.6011139,49.9815157 47.9050633,49.9815157 L54.5126582,49.9815157 C54.8166076,49.9815157 55.0632911,50.2465065 55.0632911,50.5730129 L55.0632911,54.4556007 Z M55.0632911,57.6709797 C55.0632911,57.9974861 54.8166076,58.2624769 54.5126582,58.2624769 L53.0898228,58.2624769 L51.0612911,56.0547135 L53.4113924,53.5302033 L55.0632911,55.304695 L55.0632911,57.6709797 Z M47.9050633,58.2624769 C47.6011139,58.2624769 47.3544304,57.9974861 47.3544304,57.6709797 L47.3544304,57.3932717 L49.5418196,55.2887246 L52.3104019,58.2624769 L47.9050633,58.2624769 Z M54.5126582,49.3900185 L47.9050633,49.3900185 C47.2968892,49.3900185 46.8037975,49.9197043 46.8037975,50.5730129 L46.8037975,57.6709797 C46.8037975,58.3242884 47.2968892,58.8539741 47.9050633,58.8539741 L54.5126582,58.8539741 C55.1208323,58.8539741 55.6139241,58.3242884 55.6139241,57.6709797 L55.6139241,50.5730129 C55.6139241,49.9197043 55.1208323,49.3900185 54.5126582,49.3900185 Z" id="Fill-217-Copy" fill="#52C7DB" transform="translate(51.208861, 54.121996) scale(-1, 1) rotate(13.000000) translate(-51.208861, -54.121996) "></path>
                    <path d="M37.9304169,58.8054545 C37.3043302,58.5817393 36.6311642,58.4145674 35.9226887,58.3063973 C36.0191357,57.697765 36.0704651,57.0599831 36.0868118,56.4070997 L38.7039529,56.4070997 C38.6454311,57.2924785 38.3685142,58.1118317 37.9304169,58.8054545 Z M35.2619466,60.817839 C35.4796875,60.2527559 35.657869,59.6420164 35.794856,58.9986153 C36.3826911,59.0920349 36.9463327,59.2300572 37.480223,59.4112772 C36.8904261,60.0866375 36.1247369,60.5835877 35.2619466,60.817839 Z M34.4566977,60.9555099 C34.3514233,60.9635877 34.2464763,60.972719 34.1392405,60.972719 C34.0320047,60.972719 33.9273845,60.9635877 33.8217833,60.9555099 C33.5435589,60.3331809 33.3182986,59.6406116 33.1515601,58.9055471 C33.4765367,58.8749924 33.8057634,58.8570813 34.1392405,58.8570813 C34.4727176,58.8570813 34.8019446,58.8749924 35.127248,58.9055471 C34.9601824,59.6406116 34.7349221,60.3331809 34.4566977,60.9555099 Z M30.7982582,59.4112772 C31.3321483,59.2300572 31.89579,59.0920349 32.483625,58.9986153 C32.6206123,59.6420164 32.7987935,60.2527559 33.0165344,60.817839 C32.1537441,60.5835877 31.3883817,60.0866375 30.7982582,59.4112772 Z M30.3480641,58.8054545 C29.9099668,58.1118317 29.6330502,57.2924785 29.5745281,56.4070997 L32.1916692,56.4070997 C32.2080162,57.0599831 32.2593453,57.697765 32.3557923,58.3063973 C31.6473169,58.4145674 30.974151,58.5817393 30.3480641,58.8054545 Z M30.3480641,53.3063417 C30.974151,53.5300572 31.6473169,53.6975802 32.3557923,53.8053992 C32.2593453,54.4140312 32.2080162,55.0518131 32.1916692,55.7046968 L29.5745281,55.7046968 C29.6330502,54.8193177 29.9099668,53.9999648 30.3480641,53.3063417 Z M33.0165344,51.2939573 C32.7987935,51.8590406 32.6206123,52.4697798 32.483625,53.1131809 C31.89579,53.0201127 31.3321483,52.8817393 30.7982582,52.7005193 C31.3883817,52.0251587 32.1537441,51.5282088 33.0165344,51.2939573 Z M33.8217833,51.1562863 C33.9273845,51.1485599 34.0320047,51.1390776 34.1392405,51.1390776 C34.2464763,51.1390776 34.3514233,51.1485599 34.4566977,51.1562863 C34.7349221,51.7786153 34.9601824,52.471536 35.127248,53.2062495 C34.8019446,53.2368038 34.4727176,53.2547153 34.1392405,53.2547153 C33.8057634,53.2547153 33.4765367,53.2368038 33.1515601,53.2062495 C33.3182986,52.471536 33.5435589,51.7786153 33.8217833,51.1562863 Z M35.4319545,56.4070997 C35.4142998,57.0255654 35.3619897,57.6338464 35.2635812,58.2178946 C34.8954489,58.1834768 34.5211044,58.1631071 34.1392405,58.1631071 C33.7573766,58.1631071 33.3830324,58.1834768 33.0152267,58.2178946 C32.9164913,57.6338464 32.8641812,57.0255654 32.8468536,56.4070997 L35.4319545,56.4070997 Z M32.8468536,55.7046968 C32.8641812,55.0862308 32.9164913,54.4779499 33.0152267,53.893902 C33.3830324,53.9283197 33.7573766,53.9486894 34.1392405,53.9486894 C34.5211044,53.9486894 34.8954489,53.9283197 35.2632544,53.893902 C35.3619897,54.4779499 35.4142998,55.0862308 35.4319545,55.7046968 L32.8468536,55.7046968 Z M37.480223,52.7005193 C36.9463327,52.8817393 36.3826911,53.0201127 35.794856,53.1131809 C35.657869,52.4697798 35.4796875,51.8590406 35.2619466,51.2939573 C36.1247369,51.5282088 36.8904261,52.0251587 37.480223,52.7005193 Z M37.9304169,53.3063417 C38.3685142,53.9999648 38.6454311,54.8193177 38.7039529,55.7046968 L36.0868118,55.7046968 C36.0704651,55.0518131 36.0191357,54.4140312 35.9226887,53.8053992 C36.6311642,53.6975802 37.3043302,53.5300572 37.9304169,53.3063417 Z M34.1392405,50.4366746 C31.2504138,50.4366746 28.9082278,52.9523306 28.9082278,56.0558983 C28.9082278,59.1594656 31.2504138,61.6751219 34.1392405,61.6751219 C37.0280672,61.6751219 39.3702532,59.1594656 39.3702532,56.0558983 C39.3702532,52.9523306 37.0280672,50.4366746 34.1392405,50.4366746 Z" id="Fill-110" fill="#52C7DB" transform="translate(34.139241, 56.055898) rotate(14.000000) translate(-34.139241, -56.055898) "></path>
                    <path d="M19.4098101,40.8872458 C19.0488703,40.8872458 18.7559335,41.2019224 18.7559335,41.5896488 C18.7559335,41.9773752 19.0488703,42.2920518 19.4098101,42.2920518 C19.77075,42.2920518 20.0636867,41.9773752 20.0636867,41.5896488 C20.0636867,41.2019224 19.77075,40.8872458 19.4098101,40.8872458 Z M16.7943038,45.8040665 C16.4124399,45.8040665 16.0436535,45.7563031 15.6892524,45.6751757 L14.1500269,46.6690756 L14.170624,45.0398521 C12.9907037,44.2777449 12.2171677,43.017634 12.2171677,41.5896488 C12.2171677,39.2622367 14.2664169,37.3752311 16.7943038,37.3752311 C19.3221907,37.3752311 21.3714399,39.2622367 21.3714399,41.5896488 C21.3714399,43.9174122 19.3221907,45.8040665 16.7943038,45.8040665 Z M16.7943038,36.6728281 C13.9054771,36.6728281 11.5632911,38.87451 11.5632911,41.5896488 C11.5632911,43.141608 12.3299614,44.523586 13.5249209,45.4244176 L13.5249209,47.9112754 L15.8164314,46.4176157 C16.1335615,46.4738076 16.4598459,46.5064695 16.7943038,46.5064695 C19.6831305,46.5064695 22.0253165,44.3051386 22.0253165,41.5896488 C22.0253165,38.87451 19.6831305,36.6728281 16.7943038,36.6728281 Z M14.1787975,40.8872458 C13.8178576,40.8872458 13.5249209,41.2019224 13.5249209,41.5896488 C13.5249209,41.9773752 13.8178576,42.2920518 14.1787975,42.2920518 C14.5397373,42.2920518 14.8326741,41.9773752 14.8326741,41.5896488 C14.8326741,41.2019224 14.5397373,40.8872458 14.1787975,40.8872458 Z M16.7943038,40.8872458 C16.4333639,40.8872458 16.1404272,41.2019224 16.1404272,41.5896488 C16.1404272,41.9773752 16.4333639,42.2920518 16.7943038,42.2920518 C17.1552437,42.2920518 17.4481804,41.9773752 17.4481804,41.5896488 C17.4481804,41.2019224 17.1552437,40.8872458 16.7943038,40.8872458 Z" id="Fill-190" fill="#52C7DB"></path>
                    <path d="M69.1402818,32.5324918 C71.7086804,32.5531904 73.7848101,34.796186 73.7848101,37.5600739 C73.7848101,40.3368106 71.6893328,42.5878004 69.1044304,42.5878004 L46.2531646,42.5878004 C43.6682621,42.5878004 41.5727848,40.3368106 41.5727848,37.5600739 C41.5727848,34.7833372 43.6682621,32.5323475 46.2531646,32.5323475 L51.7594937,32.5323475 L51.7594937,30.6099815 C51.7594937,28.7316009 53.1770224,27.2088725 54.9256329,27.2088725 C56.323229,27.2088725 57.5093242,28.181619 57.9291975,29.5312235 C58.4592968,26.6886272 60.7958905,24.5471349 63.5981013,24.5471349 C66.791216,24.5471349 69.3797468,27.3277694 69.3797468,30.7578558 C69.3797468,31.3745201 69.2960823,31.9701936 69.1402818,32.5324918 Z" id="Path" fill="#52C7DB"></path>
                    <path d="M59.595,37.3974122 C57.8632595,37.3974122 56.4594209,35.9157116 56.4594209,34.0850277 C56.4594209,32.2543438 57.8632595,30.7696858 59.595,30.7696858 C61.3267405,30.7696858 62.7308544,32.2543438 62.7308544,34.0850277 C62.7308544,35.9157116 61.3267405,37.3974122 59.595,37.3974122 Z M64.6134684,39.1127542 L62.3396297,36.7083179 C62.9348639,36.0133087 63.3007595,35.096488 63.3007595,34.0850277 C63.3007595,31.9201479 61.6417025,30.1663586 59.595,30.1663586 C57.5482975,30.1663586 55.8892405,31.9201479 55.8892405,34.0850277 C55.8892405,36.2469501 57.5482975,38.0007394 59.595,38.0007394 C60.4793165,38.0007394 61.2903987,37.6724584 61.927481,37.1253235 L64.2104051,39.5386322 C64.3219082,39.6569316 64.5022405,39.6569316 64.6134684,39.5386322 C64.7249715,39.4232902 64.7249715,39.2310536 64.6134684,39.1127542 Z" id="Fill-19" fill="#FFFFFE" transform="translate(60.293168, 34.896858) scale(-1, 1) translate(-60.293168, -34.896858) "></path>
                    <path d="M48.4523572,70.4010206 C46.3953851,70.4010206 44.7278969,68.6409511 44.7278969,66.4663346 C44.7278969,64.2917179 46.3953851,62.5281352 48.4523572,62.5281352 C50.5093293,62.5281352 52.1771447,64.2917179 52.1771447,66.4663346 C52.1771447,68.6409511 50.5093293,70.4010206 48.4523572,70.4010206 Z M54.4133252,72.438626 L51.7124455,69.5824654 C52.4194683,68.756884 52.8540815,67.667819 52.8540815,66.4663346 C52.8540815,63.894736 50.8834431,61.8114603 48.4523572,61.8114603 C46.0212711,61.8114603 44.050633,63.894736 44.050633,66.4663346 C44.050633,69.0344198 46.0212711,71.1176955 48.4523572,71.1176955 C49.5027537,71.1176955 50.4661625,70.72774 51.2228926,70.0778144 L53.9345642,72.9445143 C54.0670082,73.0850387 54.281208,73.0850387 54.4133252,72.9445143 C54.5457692,72.8075028 54.5457692,72.5791506 54.4133252,72.438626 Z" id="Fill-19-Copy" fill="#52C7DB" transform="translate(49.281646, 67.430684) scale(-1, 1) translate(-49.281646, -67.430684) "></path>
                    <path d="M57.3894374,24.5451223 C56.6080174,24.7963036 55.2747033,24.2513863 54.375,24.2513863 C51.7352273,24.2513863 49.2600514,25.7741147 49.2600514,27.6524954 L49.2600514,29.5748614 L45.7025316,29.5748614 C43.3994575,29.5748614 40.1478867,31.3617647 39.7577817,33.715342 L8.88072056,33.715342 C3.97603402,33.715342 5.68434189e-14,29.4347712 5.68434189e-14,24.1544195 C5.68434189e-14,19.3017463 3.35804489,15.2934595 7.70886076,14.6759966 L7.70886076,12.4214418 C7.70886076,8.50134299 10.6671818,5.32347505 14.3164557,5.32347505 C16.4664281,5.32347505 18.3765718,6.42650854 19.5832248,8.13450381 C21.0739978,3.4045304 25.2404572,7.10542736e-15 30.1471519,7.10542736e-15 C36.3053015,7.10542736e-15 41.2974684,5.36265216 41.2974684,11.9778189 L41.2974684,12.2735675 C41.2974684,12.4499455 41.2939195,12.6254331 41.286894,12.7999524 C41.8312472,12.3757964 42.5007758,12.1256932 43.2246835,12.1256932 C45.0493205,12.1256932 46.528481,13.7146271 46.528481,15.6746765 L46.528481,16.0722402 L52.2395327,16.0722402 C56.4416787,16.0722402 59.9621568,18.1288942 60.8844766,22.0388772 C58.7258606,22.595271 58.9007408,24.0593256 57.3894374,24.5451223 Z" id="Path" fill="#52C7DB"></path>
                    <path d="M32.0783223,12.4539701 C32.0783223,12.5140071 32.0675849,12.5707908 32.0521672,12.6249128 L29.6004742,9.79223258 L32.0783223,7.72199229 L32.0783223,12.4539701 Z M24.797854,13.0294969 L27.2823097,10.1855782 L28.2238919,10.9500884 L29.1247273,10.1808463 L31.6499299,13.0294969 C31.6105596,13.0392566 24.8372243,13.0392566 24.797854,13.0294969 Z M24.3694616,12.4539701 L24.3694616,7.72199229 L26.8473097,9.79223258 L24.3956167,12.6249128 C24.3801989,12.5707908 24.3694616,12.5140071 24.3694616,12.4539701 Z M31.8030058,7.13049506 L28.2238919,10.0879812 L24.644778,7.13049506 L31.8030058,7.13049506 Z M31.5276894,6.53899783 L24.9200945,6.53899783 C24.3119205,6.53899783 23.8188287,7.0686836 23.8188287,7.72199229 L23.8188287,12.4539701 C23.8188287,13.1072788 24.3119205,13.6369646 24.9200945,13.6369646 L31.5276894,13.6369646 C32.1358634,13.6369646 32.6289552,13.1072788 32.6289552,12.4539701 L32.6289552,7.72199229 C32.6289552,7.0686836 32.1358634,6.53899783 31.5276894,6.53899783 Z" id="Fill-186" fill="#FFFFFE" transform="translate(28.223892, 10.087981) rotate(8.000000) translate(-28.223892, -10.087981) "></path>
                    <path d="M42.8156641,114.487242 C42.8156641,114.547279 42.8049267,114.604062 42.789509,114.658184 L40.337816,111.825504 L42.8156641,109.755264 L42.8156641,114.487242 Z M35.5351957,115.062769 L38.0196514,112.21885 L38.9612337,112.98336 L39.8620691,112.214118 L42.3872717,115.062769 C42.3479014,115.072528 35.574566,115.072528 35.5351957,115.062769 Z M35.1068033,114.487242 L35.1068033,109.755264 L37.5846514,111.825504 L35.1329584,114.658184 C35.1175406,114.604062 35.1068033,114.547279 35.1068033,114.487242 Z M42.5403476,109.163767 L38.9612337,112.121253 L35.3821198,109.163767 L42.5403476,109.163767 Z M42.2650311,108.572269 L35.6574362,108.572269 C35.0492622,108.572269 34.5561704,109.101955 34.5561704,109.755264 L34.5561704,114.487242 C34.5561704,115.14055 35.0492622,115.670236 35.6574362,115.670236 L42.2650311,115.670236 C42.8732052,115.670236 43.366297,115.14055 43.366297,114.487242 L43.366297,109.755264 C43.366297,109.101955 42.8732052,108.572269 42.2650311,108.572269 Z" id="Fill-186-Copy-2" fill="#52C7DB" transform="translate(38.961234, 112.121253) rotate(-33.000000) translate(-38.961234, -112.121253) "></path>
                    <path d="M43.0754904,81.5289739 C43.0754904,81.6015184 43.0627399,81.6701321 43.0444314,81.7355295 L40.1330458,78.3127077 L43.0754904,75.8111672 L43.0754904,81.5289739 Z M34.4299342,82.2244019 L37.3802254,78.7880003 L38.4983543,79.7117835 L39.5680964,78.7822826 L42.5667744,82.2244019 C42.5200224,82.2361949 34.4766865,82.2361949 34.4299342,82.2244019 Z M33.9212182,81.5289739 L33.9212182,75.8111672 L36.8636629,78.3127077 L33.9522775,81.7355295 C33.933969,81.6701321 33.9212182,81.6015184 33.9212182,81.5289739 Z M42.7485521,75.0964416 L38.4983543,78.6700705 L34.2481565,75.0964416 L42.7485521,75.0964416 Z M42.4216138,74.3817156 L34.5750948,74.3817156 C33.8528883,74.3817156 33.2673416,75.0217526 33.2673416,75.8111672 L33.2673416,81.5289739 C33.2673416,82.3183885 33.8528883,82.9584254 34.5750948,82.9584254 L42.4216138,82.9584254 C43.1438206,82.9584254 43.729367,82.3183885 43.729367,81.5289739 L43.729367,75.8111672 C43.729367,75.0217526 43.1438206,74.3817156 42.4216138,74.3817156 Z" id="Fill-186-Copy" fill="#52C7DB" transform="translate(38.498354, 78.670071) rotate(26.000000) translate(-38.498354, -78.670071) "></path>
                    <path d="M38.5443038,25.16162 C38.5443038,25.16162 37.6831139,23.3800304 37.443038,22.7956311 L41.86875,18.2940415 L38.5443038,25.16162 Z M35.2405063,21.316888 L41.5727848,18.0636533 L37.1677215,22.4998825 C37.1666203,22.4986995 35.2405063,21.316888 35.2405063,21.316888 Z M42.6740506,16.8806588 C42.3557848,17.0471653 34.1392405,21.316888 34.1392405,21.316888 C34.1392405,21.316888 36.9067215,23.1088289 36.8924051,23.0913797 C36.8877247,23.0857605 38.5443038,26.3446145 38.5443038,26.3446145 C38.5443038,26.3446145 42.880538,17.3242818 42.9493671,17.1764075 C43.0096614,16.9915646 42.880538,16.7883853 42.6740506,16.8806588 Z" id="Airplance" fill="#FFFFFE"></path>
                    <path d="M16.1483691,22.4778132 L12.2092259,22.4778132 C12.0280253,22.4778132 11.880964,22.6351257 11.880964,22.8289573 C11.880964,23.0231399 12.0280253,23.1801014 12.2092259,23.1801014 L16.1483691,23.1801014 C16.3295696,23.1801014 16.476631,23.0231399 16.476631,22.8289573 C16.476631,22.6351257 16.3295696,22.4778132 16.1483691,22.4778132 Z M16.1483691,24.5846776 L12.2092259,24.5846776 C12.0280253,24.5846776 11.880964,24.741639 11.880964,24.9358217 C11.880964,25.1300043 12.0280253,25.2869657 12.2092259,25.2869657 L16.1483691,25.2869657 C16.3295696,25.2869657 16.476631,25.1300043 16.476631,24.9358217 C16.476631,24.741639 16.3295696,24.5846776 16.1483691,24.5846776 Z M16.476631,19.6686606 C16.1142298,19.6686606 15.8201071,19.3540356 15.8201071,18.9663725 L15.8201071,17.5617963 L17.7896787,19.6686606 L16.476631,19.6686606 Z M17.7896787,26.691542 C17.7896787,27.0792051 17.495556,27.3938302 17.1331548,27.3938302 L11.2244401,27.3938302 C10.862039,27.3938302 10.5679163,27.0792051 10.5679163,26.691542 L10.5679163,18.2640844 C10.5679163,17.8764213 10.862039,17.5617963 11.2244401,17.5617963 L15.1543919,17.5617963 C15.1484832,18.4027863 15.1635833,18.9663725 15.1635833,18.9663725 C15.1635833,19.7420498 15.7515004,20.3709488 16.476631,20.3709488 L17.7896787,20.3709488 L17.7896787,26.691542 Z M15.8201071,16.8595081 L15.8201071,16.8693402 C15.7780896,16.8693402 15.6027977,16.8521341 15.1635833,16.8595081 L11.2244401,16.8595081 C10.4993095,16.8595081 9.91139241,17.4884071 9.91139241,18.2640844 L9.91139241,26.691542 C9.91139241,27.4672193 10.4993095,28.0961183 11.2244401,28.0961183 L17.1331548,28.0961183 C17.8582854,28.0961183 18.4462025,27.4672193 18.4462025,26.691542 L18.4462025,19.6686606 L15.8201071,16.8595081 Z" id="Fill-222" fill="#FFFFFE" transform="translate(14.178797, 22.476895) rotate(-29.000000) translate(-14.178797, -22.476895) "></path>
                    <path d="M18.9015336,55.0101607 L14.9623904,55.0101607 C14.7811899,55.0101607 14.6341285,55.1674733 14.6341285,55.3613048 C14.6341285,55.5554875 14.7811899,55.7124489 14.9623904,55.7124489 L18.9015336,55.7124489 C19.0827342,55.7124489 19.2297955,55.5554875 19.2297955,55.3613048 C19.2297955,55.1674733 19.0827342,55.0101607 18.9015336,55.0101607 Z M18.9015336,57.1170251 L14.9623904,57.1170251 C14.7811899,57.1170251 14.6341285,57.2739865 14.6341285,57.4681692 C14.6341285,57.6623518 14.7811899,57.8193133 14.9623904,57.8193133 L18.9015336,57.8193133 C19.0827342,57.8193133 19.2297955,57.6623518 19.2297955,57.4681692 C19.2297955,57.2739865 19.0827342,57.1170251 18.9015336,57.1170251 Z M19.2297955,52.2010082 C18.8673944,52.2010082 18.5732717,51.8863831 18.5732717,51.49872 L18.5732717,50.0941439 L20.5428432,52.2010082 L19.2297955,52.2010082 Z M20.5428432,59.2238894 C20.5428432,59.6115525 20.2487205,59.9261776 19.8863194,59.9261776 L13.9776047,59.9261776 C13.6152035,59.9261776 13.3210808,59.6115525 13.3210808,59.2238894 L13.3210808,50.7964318 C13.3210808,50.4087689 13.6152035,50.0941439 13.9776047,50.0941439 L17.9075565,50.0941439 C17.9016478,50.9351338 17.9167478,51.49872 17.9167478,51.49872 C17.9167478,52.2743973 18.5046649,52.9032964 19.2297955,52.9032964 L20.5428432,52.9032964 L20.5428432,59.2238894 Z M18.5732717,49.3918557 L18.5732717,49.4016875 C18.5312541,49.4016875 18.3559623,49.3844815 17.9167478,49.3918557 L13.9776047,49.3918557 C13.2524741,49.3918557 12.664557,50.0207548 12.664557,50.7964318 L12.664557,59.2238894 C12.664557,59.9995667 13.2524741,60.6284658 13.9776047,60.6284658 L19.8863194,60.6284658 C20.61145,60.6284658 21.1993671,59.9995667 21.1993671,59.2238894 L21.1993671,52.2010082 L18.5732717,49.3918557 Z" id="Fill-222-Copy" fill="#52C7DB" transform="translate(16.931962, 55.009242) rotate(-29.000000) translate(-16.931962, -55.009242) "></path>
                    <path d="M64.6040652,49.9824343 L60.6649221,49.9824343 C60.4837215,49.9824343 60.3366601,50.1397468 60.3366601,50.3335784 C60.3366601,50.527761 60.4837215,50.6847225 60.6649221,50.6847225 L64.6040652,50.6847225 C64.7852658,50.6847225 64.9323272,50.527761 64.9323272,50.3335784 C64.9323272,50.1397468 64.7852658,49.9824343 64.6040652,49.9824343 Z M64.6040652,52.0892986 L60.6649221,52.0892986 C60.4837215,52.0892986 60.3366601,52.2462601 60.3366601,52.4404427 C60.3366601,52.6346254 60.4837215,52.7915868 60.6649221,52.7915868 L64.6040652,52.7915868 C64.7852658,52.7915868 64.9323272,52.6346254 64.9323272,52.4404427 C64.9323272,52.2462601 64.7852658,52.0892986 64.6040652,52.0892986 Z M64.9323272,47.1732818 C64.569926,47.1732818 64.2758032,46.8586567 64.2758032,46.4709936 L64.2758032,45.0664174 L66.245375,47.1732818 L64.9323272,47.1732818 Z M66.245375,54.196163 C66.245375,54.5838261 65.9512522,54.8984512 65.588851,54.8984512 L59.6801364,54.8984512 C59.3177351,54.8984512 59.0236124,54.5838261 59.0236124,54.196163 L59.0236124,45.7687054 C59.0236124,45.3810425 59.3177351,45.0664174 59.6801364,45.0664174 L63.610088,45.0664174 C63.6041794,45.9074073 63.6192794,46.4709936 63.6192794,46.4709936 C63.6192794,47.2466709 64.2071965,47.87557 64.9323272,47.87557 L66.245375,47.87557 L66.245375,54.196163 Z M64.2758032,44.3641292 L64.2758032,44.3739611 C64.2337858,44.3739611 64.058494,44.356755 63.6192794,44.3641292 L59.6801364,44.3641292 C58.9550057,44.3641292 58.3670886,44.9930283 58.3670886,45.7687054 L58.3670886,54.196163 C58.3670886,54.9718403 58.9550057,55.6007394 59.6801364,55.6007394 L65.588851,55.6007394 C66.3139816,55.6007394 66.9018987,54.9718403 66.9018987,54.196163 L66.9018987,47.1732818 L64.2758032,44.3641292 Z" id="Fill-222-Copy-2" fill="#52C7DB" transform="translate(62.634494, 49.981516) rotate(17.000000) translate(-62.634494, -49.981516) "></path>
                    <path d="M30.6036076,91.2581962 L30.6036076,103.699322 L32.6805305,104.622496 L32.238731,86.4659806 C31.8879913,86.9531818 31.6341774,87.3393352 31.4772894,87.6244407 C31.3204011,87.9095459 31.1797081,88.2403111 31.0552105,88.6167361 L30.6036076,91.2581962 Z" id="Path-17" fill="#FFFFFF"></path>
                    <path d="M37.1552357,96.8303574 L32.4536777,96.8303574 C32.2374059,96.8303574 32.0618812,97.0207882 32.0618812,97.2554265 C32.0618812,97.4904896 32.2374059,97.6804957 32.4536777,97.6804957 L37.1552357,97.6804957 C37.3715072,97.6804957 37.5470322,97.4904896 37.5470322,97.2554265 C37.5470322,97.0207882 37.3715072,96.8303574 37.1552357,96.8303574 Z M37.1552357,99.3807722 L32.4536777,99.3807722 C32.2374059,99.3807722 32.0618812,99.570778 32.0618812,99.8058413 C32.0618812,100.040904 32.2374059,100.23091 32.4536777,100.23091 L37.1552357,100.23091 C37.3715072,100.23091 37.5470322,100.040904 37.5470322,99.8058413 C37.5470322,99.570778 37.3715072,99.3807722 37.1552357,99.3807722 Z M37.1837518,94.4232166 L32.4821939,94.4232166 C32.2659224,94.4232166 32.0903974,94.6132226 32.0903974,94.8482857 C32.0903974,95.0833491 32.2659224,95.2733548 32.4821939,95.2733548 L37.1837518,95.2733548 C37.4000236,95.2733548 37.5755483,95.0833491 37.5755483,94.8482857 C37.5755483,94.6132226 37.4000236,94.4232166 37.1837518,94.4232166 Z M37.5470322,93.4298044 C37.1144888,93.4298044 36.7634391,93.0489423 36.7634391,92.5796661 L36.7634391,90.8793893 L39.114218,93.4298044 L37.5470322,93.4298044 Z M39.114218,101.931187 C39.114218,102.400463 38.7631683,102.781325 38.3306252,102.781325 L31.2782882,102.781325 C30.8457448,102.781325 30.4946952,102.400463 30.4946952,101.931187 L30.4946952,91.7295278 C30.4946952,91.2602514 30.8457448,90.8793893 31.2782882,90.8793893 L35.9688758,90.8793893 C35.9618233,91.8974299 35.9798461,92.5796661 35.9798461,92.5796661 C35.9798461,93.5186437 36.6815537,94.2799426 37.5470322,94.2799426 L39.114218,94.2799426 L39.114218,101.931187 Z M36.7634391,90.029251 L36.7634391,90.0411531 C36.7132891,90.0411531 36.5040698,90.0203247 35.9798461,90.029251 L31.2782882,90.029251 C30.4128097,90.029251 29.7111021,90.7905499 29.7111021,91.7295278 L29.7111021,101.931187 C29.7111021,102.870165 30.4128097,103.631464 31.2782882,103.631464 L38.3306252,103.631464 C39.1961034,103.631464 39.897811,102.870165 39.897811,101.931187 L39.897811,93.4298044 L36.7634391,90.029251 Z" id="Fill-222-Copy-3" fill="#52C7DB" transform="translate(34.804457, 96.829245) rotate(17.000000) translate(-34.804457, -96.829245) "></path>
                    <path d="M37.3914161,41.5157116 L35.4297864,41.5157116 C35.2489894,41.5157116 35.1028481,41.6730499 35.1028481,41.8669131 C35.1028481,42.0611277 35.2489894,42.2181146 35.4297864,42.2181146 L37.3914161,42.2181146 C37.5722132,42.2181146 37.7183544,42.0611277 37.7183544,41.8669131 C37.7183544,41.6730499 37.5722132,41.5157116 37.3914161,41.5157116 Z M37.3914161,39.4085028 L34.7759098,39.4085028 C34.5951128,39.4085028 34.4489715,39.5654897 34.4489715,39.7597043 C34.4489715,39.9539188 34.5951128,40.1109057 34.7759098,40.1109057 L37.3914161,40.1109057 C37.5722132,40.1109057 37.7183544,39.9539188 37.7183544,39.7597043 C37.7183544,39.5654897 37.5722132,39.4085028 37.3914161,39.4085028 Z M37.3914161,43.6229205 L35.4297864,43.6229205 C35.2489894,43.6229205 35.1028481,43.7802588 35.1028481,43.974122 C35.1028481,44.1683366 35.2489894,44.3253235 35.4297864,44.3253235 L37.3914161,44.3253235 C37.5722132,44.3253235 37.7183544,44.1683366 37.7183544,43.974122 C37.7183544,43.7802588 37.5722132,43.6229205 37.3914161,43.6229205 Z M34.7759098,38.0036969 L37.3914161,38.0036969 C37.5722132,38.0036969 37.7183544,37.8467099 37.7183544,37.6524954 C37.7183544,37.4586322 37.5722132,37.3012939 37.3914161,37.3012939 L34.7759098,37.3012939 C34.5951128,37.3012939 34.4489715,37.4586322 34.4489715,37.6524954 C34.4489715,37.8467099 34.5951128,38.0036969 34.7759098,38.0036969 Z M33.7950949,44.1497227 C33.7950949,45.0224586 33.0764846,45.7301294 32.190155,45.7301294 L29.5151456,45.7301294 C28.6288161,45.7301294 27.9102057,45.0224586 27.9102057,44.1497227 L27.9102057,43.0961183 C27.9102057,42.349464 28.437557,41.7278373 29.1443979,41.5624213 C29.6266317,41.9736784 30.2151206,42.2181146 30.8526503,42.2181146 C31.49018,42.2181146 32.0786689,41.9736784 32.560903,41.5624213 C33.2677436,41.7278373 33.7950949,42.349464 33.7950949,43.0961183 L33.7950949,44.1497227 Z M28.5640823,38.7060998 C28.5640823,37.1544917 29.5887069,35.896488 30.8526503,35.896488 C32.1165938,35.896488 33.1412184,37.1544917 33.1412184,38.7060998 C33.1412184,40.2577079 32.1165938,41.5157116 30.8526503,41.5157116 C29.5887069,41.5157116 28.5640823,40.2577079 28.5640823,38.7060998 Z M33.1251985,40.9372827 C33.5433525,40.3304068 33.7950949,39.5531978 33.7950949,38.7060998 C33.7950949,36.7667652 32.4778607,35.194085 30.8526503,35.194085 C29.2274399,35.194085 27.9102057,36.7667652 27.9102057,38.7060998 C27.9102057,39.5531978 28.1619482,40.3304068 28.5801024,40.9372827 C27.8117974,41.2224583 27.2563291,41.9979111 27.2563291,42.9205176 L27.2563291,44.3253235 C27.2563291,45.4888538 28.1348124,46.4325323 29.2179589,46.4325323 L32.4873418,46.4325323 C33.5704882,46.4325323 34.4489715,45.4888538 34.4489715,44.3253235 L34.4489715,42.9205176 C34.4489715,41.9979111 33.8935032,41.2224583 33.1251985,40.9372827 Z" id="Fill-176" fill="#52C7DB" transform="translate(32.487342, 40.813309) rotate(-11.000000) translate(-32.487342, -40.813309) "></path>
                </g>
                <g id="in_box-man-copy" transform="translate(123.000000, 146.000000) scale(-1, 1) translate(-123.000000, -146.000000) translate(101.000000, 100.000000)">
                    <path d="M0.318106623,8.09671138 L17.9476158,2.66665865 C18.2963931,2.91331992 17.6308277,21.6146705 17.9476158,21.8433203 C21.0417665,24.0766008 22.6100474,25.4507396 22.6524586,25.9657367 C22.7775431,27.4846301 21.8614508,28.5804587 20.1050633,30.4011895 C19.5545474,30.9718728 20.3286719,31.5064893 19.9344357,31.9371973 C19.4653677,32.4496597 16.207275,31.7530239 15.0732272,31.3722598 C12.8894526,30.6390428 10.5316923,29.0562478 9.73097349,28.5625656 C8.6961689,27.9245581 11.9126127,35.2392698 13.5238867,35.3386434 C14.2933534,35.3860995 17.7558946,36.4230683 19.1866087,36.2900903 C20.1998949,36.19591 20.7900232,42.2417245 20.4769528,42.2708228 C19.8655676,42.3276484 10.0951411,43.7342818 9.57670067,43.2839503 C9.38048969,43.1135159 8.1654796,40.957958 6.73713562,36.4102517 C6.52939047,35.7488118 5.49679554,31.2044621 4.30780005,25.8998567 C4.19039896,25.3760814 2.48848032,25.1015615 1.60253765,23.9569567 C0.997954564,23.1758579 0.545992422,21.8698883 1.22565351,21.2768413 C1.9053146,20.6837943 3.38885664,21.7905224 3.23090839,21.0826649 C1.97650194,15.460944 0.765187723,10.0093586 0.318106623,8.09671138 Z" id="Path-2" fill="#F8BD9D"></path>
                    <path d="M33.562658,34.0352599 L29.8101026,30.7855189 C30.3635597,30.2093585 30.8268849,29.5206041 31.2000776,28.7192557 C32.5165661,25.8923917 32.1119918,25.211181 33.562658,22.7277456 C33.754137,22.3999477 34.3899105,22.4739923 35.1569051,21.5174227 C36.6979277,19.5955122 38.982963,16.1001071 40.7586763,14.9347402 C41.5212174,14.4342989 42.4467146,16.3779893 42.0979125,17.2879211 C41.4299803,19.0303781 40.2648008,18.4770787 38.7252079,20.2395178 C38.0866963,20.9704496 37.5460244,21.8924753 37.1031923,23.0055947 C37.1271943,23.0970422 37.1703144,23.1345485 37.2325527,23.1181137 C37.8939428,22.9434646 38.6010682,22.8095193 39.0391598,23.1181137 C39.3216711,23.3171162 39.398318,23.5075184 39.4342784,24.0252655 C39.4459618,24.19348 39.5810249,24.3208117 39.6572794,24.4141578 C39.9932146,24.82539 40.1369781,24.3604209 40.4515776,24.7396576 C40.6955493,25.0337556 40.6359596,25.0678245 40.848706,25.5704161 C40.9424329,25.7918368 41.3241512,25.6188528 41.4766096,25.6760435 C41.8484828,25.8155416 41.8721626,26.1467952 41.7482596,26.6019738 C41.3643886,28.0121897 40.6502773,29.1183317 39.3515779,30.0400523 C37.8654637,31.0947857 37.6559991,30.0590715 36.1535163,31.0960062 C35.2255316,31.7364524 34.3619121,32.7162037 33.562658,34.0352599 Z" id="Path-20" fill="#F8BD9D" transform="translate(35.991906, 24.444469) rotate(-10.000000) translate(-35.991906, -24.444469) "></path>
                    <g id="Group" transform="translate(12.574684, 17.589744) scale(-1, 1) translate(-12.574684, -17.589744) translate(5.574684, 12.089744)">
                        <g id="Left-eye" transform="translate(5.551208, 0.589744)">
                            <ellipse id="Oval" fill="#FFFFFF" transform="translate(3.780613, 5.125089) rotate(21.000000) translate(-3.780613, -5.125089) " cx="3.78061262" cy="5.12508862" rx="2.22048331" ry="4.27564103"></ellipse>
                            <ellipse id="Oval-Copy-2" fill="#3A2C2F" transform="translate(3.588310, 3.512517) rotate(15.000000) translate(-3.588310, -3.512517) " cx="3.58831004" cy="3.51251683" rx="1" ry="1.62179487"></ellipse>
                        </g>
                        <g id="Right-eye">
                            <ellipse id="Oval-Copy" fill="#FFFFFF" transform="translate(2.767654, 4.301481) rotate(10.000000) translate(-2.767654, -4.301481) " cx="2.76765431" cy="4.3014806" rx="1.9429229" ry="3.98076923"></ellipse>
                            <ellipse id="Oval" fill="#3A2C2F" transform="translate(2.643498, 2.506410) rotate(10.000000) translate(-2.643498, -2.506410) " cx="2.64349827" cy="2.50641026" rx="1" ry="1.62179487"></ellipse>
                        </g>
                    </g>
                    <path d="M4.06477895,21.9939719 C5.62945162,21.6088838 6.6056968,21.6088838 6.99351442,21.9939719 C7.85787641,22.8522504 9.55463559,28.9440705 10.5648252,31.4786607 C11.4593892,33.7231437 12.7671548,35.2919726 13.5238867,35.3386434 C14.2933534,35.3860995 19.386317,36.3439625 20.8170311,36.2109844 C21.8303173,36.1168042 23.1565133,42.6755213 22.9390708,42.6841121 C19.2520261,42.8297817 8.10279031,40.019167 6.99351442,36.4873424 C6.79308527,35.8491959 7.09089361,33.7502077 6.66002947,31.4786607 C6.05441063,28.2857942 4.6559204,24.5229203 4.06477895,21.9939719 Z" id="Path-2-Copy" fill="#4A4A4A"></path>
                    <path d="M2.87845712,19.7604944 C4.26723354,19.4291548 5.10032993,19.2106806 5.37774632,19.1050719 C5.52853829,19.0476675 6.13508645,19.6580663 6.23824059,19.7604944 C7.10260255,20.6187729 9.55463559,28.9440705 10.5648252,31.4786607 C10.791574,32.047579 11.5066235,32.852497 11.3449731,33.796905 C10.8688843,36.5783534 8.05981022,39.8823229 6.99351442,36.4873424 C6.79308527,35.8491959 7.09089361,33.7502077 6.66002947,31.4786607 C6.05441063,28.2857942 3.46959858,22.2894429 2.87845712,19.7604944 Z" id="Path-2-Copy-2" fill="#9B9B9B"></path>
                    <path d="M42.3503187,53.8256191 C42.4301412,53.4406106 42.7108178,52.6086699 42.5165868,52.4861324 C42.4721886,52.4581222 42.3591823,52.4568608 42.1199167,52.4861324 C41.8769333,52.515859 41.5274906,52.4329195 41.4943266,52.4379674 C41.464939,52.4424407 41.0083519,52.3211956 40.9695842,52.2610862 C40.7632805,51.9412143 40.4910195,52.3560037 40.4648308,52.6410796 C40.3920398,53.4334381 41.3176322,53.6846261 41.6506997,55.1323614 C41.9146485,56.2796613 41.6876296,56.8881036 41.1088335,57.2861979 C40.5988365,57.6369724 40.4391465,56.6649806 39.976639,55.8370322 C39.3885706,54.7843139 39.4938923,55.2725426 39.0441998,54.0670474 C38.8808341,53.6291115 38.7253006,53.5264103 38.328767,53.5543845 C37.3334623,53.6246003 37.3431583,54.5736481 36.7254273,54.0046605 C35.6677817,53.0304707 35.023972,51.3681183 35.5043408,50.0361229 C35.8212251,49.1574471 37.1388483,50.1578061 38.1067841,49.8003838 C38.2599412,49.7438285 38.896604,49.2013022 39.0441998,49.0908214 C39.3194853,48.8847597 39.8355131,48.7758264 40.4648308,48.9444057 C40.5674896,48.9719058 40.6386417,49.0538427 40.7447958,49.0908214 C40.7916785,49.1071529 40.9929897,49.0737153 41.0403191,49.0908214 C41.1360127,49.1254075 41.2375343,49.3317089 41.3309548,49.3728091 C41.4846986,49.4404479 41.7806088,49.3808579 41.9246612,49.4502733 C42.0410423,49.5063544 42.0484093,49.7771547 42.1653891,49.8003838 C42.4130688,49.8495663 42.6847882,49.8762661 42.8080061,49.9672676 C42.9762472,50.0915207 42.9610269,50.2916732 43.08934,50.427822 C43.9214089,51.3107029 43.5918856,53.8812705 43.537864,54.1662685 C43.5297484,54.2090848 43.5165191,54.2461903 43.4988829,54.2778336 L42.3503187,53.8256191 Z" id="Path" fill="#F8BD9D"></path>
                    <path d="M10.7293159,44.6112199 L20.2113455,43.9358974 L20.2113455,46.1891588 C24.4370902,47.6222115 26.6822151,48.3387379 26.9467201,48.3387379 C27.2112251,48.3387379 30.6342341,48.3710706 37.2157469,48.4357366 L36.9357473,54.9091659 L27.6528059,55.353313 L22.4916321,52.9297706 L27.6528059,69.9455265 L9.7146145,71.5739444 L10.3990806,54.2925244 L10.7293159,47.9464605 L10.7293159,44.6112199 Z" id="Path-6" fill="#3A2C2F"></path>
                    <rect id="Rectangle" fill="#E0D768" x="9.50700833" y="86.2301696" width="2.63930618" height="1.23639226"></rect>
                    <rect id="Rectangle-Copy-2" fill="#E0D768" x="20.3359264" y="86.2301696" width="2.32879957" height="1.23639226"></rect>
                    <path d="M11.1202113,70.4165803 C11.2459147,73.3298449 11.3087664,75.1495436 11.3087664,75.8756766 C11.3087664,76.5697683 8.10194794,81.8118994 8.10194794,82.4943869 C8.10194794,83.3631217 8.10194794,84.7726631 8.10194794,86.7230115 C10.5113011,86.7230115 12.4424189,86.8396404 13.8953014,87.0728981 C14.3972501,83.8018319 17.1216573,80.0206075 17.3383892,76.3390314 C17.4392891,74.6250675 17.5309329,72.8680244 17.6133207,71.067902 L18.4938073,72.071737 L18.8417675,86.2406045 L24.0145305,86.2406045 L24.0145305,68.983665 L11.1202113,70.4165803 Z" id="Path-15" fill="#3A2C2F"></path>
                    <path d="M9.42888174,87.2667062 L9.3129417,90.1621246 L10.8043484,90.3243842 L10.9664385,89.4139649 C11.4389935,89.6815835 11.7421345,89.8929523 11.8758613,90.0480711 C12.6808417,90.9818221 12.9966702,91.6475486 13.3555501,91.7654074 C14.9784438,92.2983772 18.061613,91.1418732 18.061613,90.9253622 C18.061613,89.8526843 16.0346057,90.3978005 14.4736848,89.5970774 C13.5587824,89.1277497 12.7992421,88.5673679 12.1950639,87.9159325 L12.1950639,87.0544309 L9.42888174,87.2667062 Z" id="Path-16" fill="#3A2C2E"></path>
                    <path d="M20.2966131,86.6485098 L20.1806731,89.5439285 L21.2839464,89.7061882 L21.4460366,88.7957689 C21.9185916,89.0633874 22.2217325,89.2747562 22.3554594,89.429875 C23.1604398,90.3636261 24.4203929,90.6834078 24.7792727,90.8012665 C26.4021665,91.3342364 28.9293443,89.6994156 28.9293443,89.4829045 C28.9293443,88.4102266 26.7932786,89.4725878 25.2323576,88.6718646 C24.3174552,88.2025366 23.46489,87.744494 22.674662,87.2977364 L22.674662,86.4362348 L20.2966131,86.6485098 Z" id="Path-16-Copy" fill="#3A2C2E"></path>
                    <polygon id="Path-13" fill="#52C7DB" points="15.5545993 44.4541933 15.5545993 48.9874063 16.8950963 48.9874063 18.1974673 65.0392355 21.0750528 67.3375535 22.7799206 64.316602 18.4185239 48.4716729 19.5596975 48.0759384 17.7513551 44.2906359"></polygon>
                    <path d="M14.5796563,9.51570334 L8.7113887,8.70617024 L4.3673676,14.0930879 L5.48536554,19.2580328 L2.91865428,19.9406688 C1.09590658,13.4667259 0.184532741,9.52232837 0.184532741,8.10747612 C0.184532741,5.46210352 3.62958204,2.50777785 8.87181735,0.569017564 C12.1047277,-0.626624724 18.0966847,1.09438996 18.0966847,2.44558766 C18.0966847,3.35426751 18.0966847,4.95991532 18.0966847,7.26253107 L15.6220353,5.713257 L14.5796563,9.51570334 Z" id="Path-18" fill="#9B9B9B"></path>
                </g>
                <path d="M126.020371,111.985477 C126.252849,111.728334 127.551895,109.966423 128.658974,109.966423 C129.247464,109.966423 129.694473,110.639441 130,111.985477 C129.726597,109.995159 129.279589,109 128.658974,109 C127.600082,109 125.787893,112.242619 126.020371,111.985477 Z" id="Path-19" fill="#9B9B9B"></path>
                <path d="M133.020371,112.985477 C133.252849,112.728334 134.551895,110.966423 135.658974,110.966423 C136.247464,110.966423 136.694473,111.639441 137,112.985477 C136.726597,110.995159 136.279589,110 135.658974,110 C134.600082,110 132.787893,113.242619 133.020371,112.985477 Z" id="Path-19-Copy" fill="#9B9B9B" transform="translate(135.000000, 111.500000) scale(-1, 1) translate(-135.000000, -111.500000) "></path>
                <polygon id="Path-21" fill="#402E34" points="133 144.633708 120.476436 146.404811 114.333333 129 109 133.782912 118.222083 155 133 150.009966"></polygon>
            </g>
        </g>
    </g>
</svg>