<?xml version="1.0" encoding="UTF-8"?>
<svg width="550px" height="650px" viewBox="30 30 545 630" version="1.1" xmlns="http://www.w3.org/2000/svg" xmlns:xlink="http://www.w3.org/1999/xlink">
    <!-- Generator: Sketch 52.6 (67491) - http://www.bohemiancoding.com/sketch -->
    <title>Graphic out of the box</title>
    <desc>Created with Sketch.</desc>
    <g id="Graphic-out-of-the-box" stroke="none" stroke-width="1" fill="none" fill-rule="evenodd">
        <g id="Graphic">
            <rect id="Rectangle" fill="#D8D8D8" fill-rule="nonzero" opacity="0" x="0" y="0" width="593" height="780"></rect>
            <g id="Open-box" stroke-width="1" fill-rule="evenodd" transform="translate(194.000000, 487.000000)">
                <polygon id="Path-9" fill="#A6A6A6" fill-rule="nonzero" points="0.00603361391 148.061258 152.839945 180.593279 226.935254 153.552663 72.6566513 119.292588"></polygon>
                <polygon id="Path-8" fill="#9A785D" fill-rule="nonzero" points="29.507431 19.6515198 89.0801904 0.806396878 209.094454 21.260851 151.943616 45.5955041"></polygon>
                <path d="M144.653846,38.0031059 L130.346154,38.0031059 C129.688,38.0031059 129.153846,38.5350189 129.153846,39.1904118 C129.153846,39.8469919 129.688,40.3777177 130.346154,40.3777177 L144.653846,40.3777177 C145.312,40.3777177 145.846154,39.8469919 145.846154,39.1904118 C145.846154,38.5350189 145.312,38.0031059 144.653846,38.0031059 L144.653846,38.0031059 Z M144.653846,45.1269412 L130.346154,45.1269412 C129.688,45.1269412 129.153846,45.6576669 129.153846,46.3142471 C129.153846,46.9708272 129.688,47.5015529 130.346154,47.5015529 L144.653846,47.5015529 C145.312,47.5015529 145.846154,46.9708272 145.846154,46.3142471 C145.846154,45.6576669 145.312,45.1269412 144.653846,45.1269412 L144.653846,45.1269412 Z M145.846154,28.5046588 C144.529846,28.5046588 143.461538,27.4408328 143.461538,26.1300471 L143.461538,21.3808236 L150.615385,28.5046588 L145.846154,28.5046588 L145.846154,28.5046588 Z M150.615385,52.2507765 C150.615385,53.5615622 149.547077,54.6253882 148.230769,54.6253882 L126.769231,54.6253882 C125.452923,54.6253882 124.384615,53.5615622 124.384615,52.2507765 L124.384615,23.7554353 C124.384615,22.4446496 125.452923,21.3808236 126.769231,21.3808236 L141.043538,21.3808236 C141.022077,24.2244211 141.076923,26.1300471 141.076923,26.1300471 C141.076923,28.7528058 143.212346,30.8792706 145.846154,30.8792706 L150.615385,30.8792706 L150.615385,52.2507765 L150.615385,52.2507765 Z M143.461538,19.0062118 L143.461538,19.0394564 C143.308923,19.0394564 142.672231,18.9812784 141.076923,19.0062118 L126.769231,19.0062118 C124.135423,19.0062118 122,21.1326766 122,23.7554353 L122,52.2507765 C122,54.8735352 124.135423,57 126.769231,57 L148.230769,57 C150.864577,57 153,54.8735352 153,52.2507765 L153,28.5046588 L143.461538,19.0062118 L143.461538,19.0062118 Z" id="Fill-222-Copy-4" fill="#52C7DB" transform="translate(137.500000, 38.000000) rotate(-27.000000) translate(-137.500000, -38.000000) "></path>
                <polygon id="Path-3" fill="#CEA07B" fill-rule="nonzero" points="31.7313566 146.140637 150.072054 169.896679 150.072054 42.9805162 31.7313566 20.0160924"></polygon>
                <polygon id="Path-5" fill="#AD8769" fill-rule="nonzero" points="150.068314 169.887543 206.865151 149.123079 206.865151 22.7071335 150.068314 43.1634007"></polygon>
                <polygon id="Path-4" fill="#E3B188" fill-rule="nonzero" points="150.432393 43.000579 131.30858 86.8786609 8.40588822 62.3307508 29.5047398 19.6331948"></polygon>
                <polygon id="Path-7" fill="#CEA07B" fill-rule="nonzero" points="150.327938 43.0566399 167.271254 87.6988112 223.038762 62.5271383 209.041197 21.2738635"></polygon>
            </g>
            <ellipse id="in_box-man-shadow" fill="#A6A6A6" fill-rule="nonzero" cx="100.5" cy="549" rx="52.5" ry="4"></ellipse>
            <g id="in_box-man" stroke-width="1" fill-rule="evenodd" transform="translate(64.000000, 381.000000)">
                <path d="M20.5699453,12.8776442 C22.2517864,23.5668737 23.5492205,30.8209812 24.4622476,34.6399666 C27.167039,45.9534959 29.8299048,51.4368413 30.2974815,51.8928936 C31.532941,53.0979025 56.9073338,51.8928936 58.4885447,51.8928936 C59.2982314,51.8928936 58.9667989,31.4510408 56.3461607,31.4510408 C44.8976233,31.4510408 43.4952236,38.9560124 37.2735588,38.7959662 C33.6163928,38.7018892 32.3619686,34.5681641 33.9239175,30.9313724 C36.1808753,25.6763443 38.9208999,24.877105 45.2374159,23.9489244 C49.9734587,23.2529866 50.0865186,25.3858824 55.2126257,27.2900055 C57.7363736,28.2274667 59.3493599,28.886184 60.6616023,27.7528529 C61.7644989,26.8003254 58.5093084,24.3740517 60.0429037,23.1182884 C64.9357458,19.1118523 73.1314928,21.5920007 73.1314928,17.8924579 C73.1314928,16.5096623 66.7218955,10.5455097 53.902701,3.19744231e-14 L20.5699453,12.8776442 Z" id="Path-2" fill="#F6A77D" fill-rule="nonzero"></path>
                <path d="M116.642848,43.1985875 C116.921732,43.1985875 117.339168,42.0271353 117.442642,41.5063021 C118.219161,37.5977118 116.461365,36.4618912 117.442642,33.2366829 C117.852829,31.8885024 119.393915,31.5008617 119.501842,32.7902812 C119.750286,35.7584775 119.87024,41.8622525 119.987708,42.8233366 C120.010511,43.009903 120.194102,43.1095467 120.283155,43.1095467 C120.407951,43.1095467 120.457137,42.8700784 120.474802,42.5667951 C120.593103,40.5357724 119.756742,39.7722822 120.350005,37.7248252 C120.636238,36.7369837 122.027949,36.7800392 122.103262,37.7248252 C122.291963,40.0920556 122.445278,45.1727358 122.445278,45.1727358 C122.445278,45.1727358 121.852517,46.4444971 121.787549,46.7055205 C121.251966,48.8573429 122.224158,48.3773911 119.507258,51.4829191 C116.074319,55.4069104 117.718445,55.2668105 113.741951,57.4690122 C111.82666,58.5297093 109.992885,57.85263 107.925629,58.6396194 C104.743133,59.8511724 104.628207,63.8449287 102.053257,63.2484181 C98.6831175,62.4676945 96.2684056,58.8363042 95.8335115,55.2542483 C95.5795062,53.162104 97.4736572,54.4705252 99.0487893,52.4387792 C99.6763285,51.6293232 99.6939222,51.1575916 99.0487893,50.2142645 C97.2729488,47.6175924 98.1028237,48.505115 96.8335115,45.8200192 C95.8352152,43.7082292 94.1110335,42.0481317 95.5510528,41.4341848 C97.1853319,40.7374158 98.7357149,41.0778201 100.662156,43.1985875 C103.09306,45.874706 102.264566,48.1935645 103.962525,49.113105 C104.956356,49.6513209 105.475161,48.3222849 106.569501,47.1128121 C108.37878,45.1131831 108.306255,43.9453398 108.442642,43.2588418 C109.219161,39.3502516 107.461365,38.214431 108.442642,34.9892227 C108.852829,33.6410422 110.847224,33.6998032 110.955151,34.9892227 C111.10463,36.7750771 111.238615,39.692477 111.328561,41.944776 C111.333881,42.0780016 111.428326,43.1358632 111.806691,43.1095467 C112.123062,43.1095467 112.420418,42.2828388 112.442642,42.1410782 C113.219161,37.1878076 111.461365,35.7484071 112.442642,31.6611715 C112.852829,29.952652 115.304338,29.3123297 115.412265,30.9463826 C115.500546,32.2829779 115.581576,34.5519224 115.740802,37.1116645 C115.844238,38.7745324 116.008014,40.8069597 116.135014,41.944776 C116.283476,43.2748856 116.554935,43.1985875 116.642848,43.1985875 Z" id="Path" fill="#F6A77D" fill-rule="nonzero"></path>
                <path d="M32.3812716,56.4529658 L56.8111014,54.8143535 L56.8111014,60.2816993 C67.6984568,63.7588791 73.4828744,65.4974689 74.1643543,65.4974689 C74.8458342,65.4974689 81.5196442,60.5675536 94.1857845,50.707723 L105.743602,65.4974689 L75.9835383,82.5177352 L62.686111,76.6372167 L75.9835383,117.924492 L29.7669597,121.875709 L31.5304419,79.9438224 L22.6885464,87.9697783 L0.609822258,81.3939055 L32.3812716,64.5456415 L32.3812716,56.4529658 Z" id="Path-6" fill="#3A2C2F" fill-rule="nonzero"></path>
                <rect id="Rectangle" fill="#E14129" fill-rule="nonzero" x="29.5" y="157" width="6.8" height="3"></rect>
                <rect id="Rectangle-Copy-2" fill="#E14129" fill-rule="nonzero" x="57.4" y="157" width="6" height="3"></rect>
                <path d="M33.656312,118.629679 C33.9801787,125.698467 34.1421121,130.11381 34.1421121,131.875709 C34.1421121,133.559864 25.8799537,146.279446 25.8799537,147.935443 C25.8799537,150.043354 25.8799537,153.463486 25.8799537,158.195839 C32.0874947,158.195839 37.0628936,158.478829 40.8061504,159.044809 C42.0993887,151.107847 49.1186457,141.933029 49.6770412,133 C49.9370032,128.841213 50.1731175,124.577898 50.3853843,120.210055 L52.6539006,122.645775 L53.5503974,157.02532 L66.8776835,157.02532 L66.8776835,115.152833 L33.656312,118.629679 Z" id="Path-15" fill="#3A2C2F" fill-rule="nonzero"></path>
                <path d="M29.2987119,159.515067 L29,166.540553 L32.8425119,166.934262 L33.2601265,164.725208 C34.4776336,165.374561 35.2586565,165.887429 35.6031951,166.263812 C37.6771744,168.529478 38.490886,170.144807 39.4155164,170.430781 C43.5967962,171.723987 51.5403803,168.917829 51.5403803,168.392483 C51.5403803,165.789722 46.3179283,167.1124 42.2963175,165.169514 C39.9391311,164.03073 37.9822251,162.671012 36.4255996,161.09036 L36.4255996,159 L29.2987119,159.515067 Z" id="Path-16" fill="#3A2C2E" fill-rule="nonzero"></path>
                <path d="M57.2987119,158.015067 L57,165.040553 L59.8425119,165.434262 L60.2601265,163.225208 C61.4776336,163.874561 62.2586565,164.387429 62.6031951,164.763812 C64.6771744,167.029478 67.9233612,167.805402 68.8479916,168.091376 C73.0292714,169.384581 79.5403803,165.417829 79.5403803,164.892483 C79.5403803,162.289722 74.0369462,164.86745 70.0153354,162.924564 C67.658149,161.78578 65.4615704,160.674379 63.4255996,159.59036 L63.4255996,157.5 L57.2987119,158.015067 Z" id="Path-16-Copy" fill="#3A2C2E" fill-rule="nonzero"></path>
                <path d="M26.4169913,101.235366 C26.6958022,101.235366 34.2871075,111.706173 34.2871075,112.913213 C34.2871075,116.046765 23.4988591,122.799565 20.5764868,117.659177 C20.1818497,116.965019 19.8405052,114.419081 20.8276889,113.692877 C22.0700863,112.778929 23.5688754,113.929547 24.4424505,112.913213 C25.2839145,111.934238 25.7450352,110.909248 24.2577672,109.702258 C22.7635344,108.489616 20.6208175,108.041606 17.8296165,108.358228 C23.3686591,103.609653 26.2311174,101.235366 26.4169913,101.235366 Z" id="Path-14" fill="#F6A77D" fill-rule="nonzero"></path>
                <polygon id="Path-6-Copy" fill="#3A2C2F" fill-rule="nonzero" points="32.3812716 78.5507052 22.6885464 87.9697783 31.7669597 94.8768014 31.7669597 99.7699903 18.007759 109.910778 0.609822258 81.3939055 32.3812716 64.5456415"></polygon>
                <polygon id="Path-13" fill="#E14129" fill-rule="nonzero" points="45.0812231 55.6341696 45.0812231 66.633623 48.5349262 66.633623 51.8904 105.582013 59.304311 111.158684 63.6967917 103.828604 52.4599379 65.3822396 55.400097 64.4220244 50.741021 55.2373118"></polygon>
            </g>
            <g id="Closed-box" stroke-width="1" fill-rule="evenodd" transform="translate(44.000000, 301.000000)">
                <polygon id="Path-10" fill="#AD8769" fill-rule="nonzero" points="0.99721023 85 32.5683077 97.3359962 32.5683077 24.5837139 0.99721023 13.0732446"></polygon>
                <polygon id="Path-11" fill="#CEA07B" fill-rule="nonzero" points="32.5372851 97.321548 99.4578408 83.1025801 103.436722 12.2204132 32.5372851 23.9774011"></polygon>
                <polygon id="Path-12" fill="#C59A77" fill-rule="nonzero" points="0.982666016 13.0747986 32.5995855 24.9452776 103.45505 12.2186537 68.673902 0.870639673"></polygon>
            </g>
            <g id="Ideas" stroke-width="1" fill-rule="evenodd" transform="translate(186.000000, 107.000000)">
                <path d="M24.3257034,127.821859 C25.4957308,127.941174 25.7419521,128.878634 25.7041774,129.340734 C22.898602,163.661497 25.2353824,188.143317 32.6285683,202.715013 C37.941863,213.187321 45.6711455,220.644153 63.5007419,234.500149 C63.4801505,234.484147 65.8526076,236.326729 66.5261579,236.850842 C77.9316606,245.725862 83.791595,250.829396 89.0245659,257.043014 C95.839807,265.135416 99.5553705,273.411262 99.9738613,282.712615 C100.554514,295.618168 101.281265,331.7823 102.155185,391.236681 C102.161882,391.692322 101.779934,392.629679 100.675464,392.629679 C99.5709935,392.629679 99.1632994,391.810931 99.1571476,391.392301 C98.2830545,331.909641 97.555946,295.717449 96.9768932,282.847456 C96.5907576,274.265229 93.1473492,266.595566 86.7299143,258.975518 C81.6744803,252.972707 75.9280365,247.968015 64.6838092,239.218489 C64.0115513,238.695382 61.6402526,236.853699 61.6598695,236.868944 C43.4781222,222.739279 35.5372441,215.07831 29.9532158,204.072396 C22.2456481,188.881065 19.8634201,163.887478 22.7203686,129.02028 C22.7564465,128.579972 23.1556761,127.702544 24.3257034,127.821859 Z" id="Path" fill="#52C7DB" fill-rule="nonzero"></path>
                <path d="M170.078057,410.233375 C168.784428,410.233375 168.588096,408.914019 168.59314,408.263508 C169.085152,344.811344 169.870352,303.329491 170.950128,283.790719 C171.505413,273.742717 175.944119,265.733952 183.932312,258.967416 C190.062692,253.774573 197.129907,249.911441 209.629518,244.275441 C210.774362,243.759237 214.666041,242.017267 215.21256,241.771639 C225.121767,237.318041 230.476667,234.565003 235.220843,231.170622 C241.1227,226.947937 244.691331,222.41444 246.017946,217.019938 C251.144091,196.175152 253.572651,177.355552 253.309379,160.564292 C253.299941,159.962352 253.536757,158.72519 254.770125,158.72519 C256.003492,158.72519 256.299896,159.927263 256.309565,160.55289 C256.573163,177.609911 254.111777,196.670017 248.931149,217.736353 C247.412388,223.91219 243.403707,229.004714 236.966493,233.610438 C232.010073,237.156677 226.528082,239.975054 216.442381,244.507976 C215.892317,244.755197 212.002942,246.496136 210.862645,247.010289 C198.607049,252.536264 191.724784,256.298298 185.871357,261.256543 C178.479474,267.517964 174.45245,274.783932 173.945557,283.956256 C172.86955,303.426849 172.085024,344.865849 171.593366,408.246044 C171.588216,408.909883 171.371685,410.233375 170.078057,410.233375 Z" id="Path" fill="#52C7DB" fill-rule="nonzero"></path>
                <path d="M114.5,402.707133 C113,402.707133 113,401.348059 113,400.668522 C113,369.385435 113,322.460804 113,259.89463 C113,244.816573 115.687816,234.454249 120.890167,227.576851 C125.068018,222.05382 130.290999,219.113643 138.351609,216.731876 C139.588064,216.366525 139.870664,216.288932 142.944001,215.457798 C149.416132,213.707517 152.373834,212.589925 155.118038,210.500143 C158.581818,207.862386 160.632739,203.981614 161.311584,198.004301 C163.288613,180.596312 164.291423,168.331093 164.321725,161.257142 C164.324847,160.528386 164.292422,159.193741 165.799527,159.193741 C167.306632,159.193741 167.324563,160.481358 167.321652,161.22845 C167.29348,168.458775 166.283166,180.814084 164.292422,198.342835 C163.524696,205.102753 161.078078,209.732268 156.935595,212.886875 C153.778833,215.290829 150.5707,216.503049 143.727169,218.353769 C140.683778,219.176804 140.405533,219.253202 139.201721,219.608907 C131.699227,221.825761 127.001938,224.47001 123.282749,229.3867 C118.526811,235.673949 116,245.41555 116,259.89463 C116,322.433275 116,369.337258 116,400.606581 C116,401.306765 116,402.707133 114.5,402.707133 Z" id="Path" fill="#52C7DB" fill-rule="nonzero"></path>
                <path d="M98.3002388,395.875709 L103.161675,395.875709 C103.71396,395.875709 104.161675,396.323424 104.161675,396.875709 C104.161675,397.021657 104.129729,397.165836 104.068078,397.298123 L101.637308,402.513991 C101.404015,403.014583 100.809083,403.231272 100.308491,402.997979 C100.095248,402.898601 99.9238702,402.727221 99.8244953,402.513976 L97.393829,397.298109 C97.1605442,396.797512 97.377243,396.202584 97.8778393,395.969299 C98.0101229,395.907653 98.1542965,395.875709 98.3002388,395.875709 Z" id="Rectangle" fill="#52C7DB" fill-rule="nonzero"></path>
                <path d="M112.300239,405.875709 L117.161675,405.875709 C117.71396,405.875709 118.161675,406.323424 118.161675,406.875709 C118.161675,407.021657 118.129729,407.165836 118.068078,407.298123 L115.637308,412.513991 C115.404015,413.014583 114.809083,413.231272 114.308491,412.997979 C114.095248,412.898601 113.92387,412.727221 113.824495,412.513976 L111.393829,407.298109 C111.160544,406.797512 111.377243,406.202584 111.877839,405.969299 C112.010123,405.907653 112.154296,405.875709 112.300239,405.875709 Z" id="Rectangle-Copy" fill="#52C7DB" fill-rule="nonzero"></path>
                <path d="M171.821289,418.046326 L169.121238,419.077814 L166.893829,414.298109 C166.660544,413.797512 166.877243,413.202584 167.377839,412.969299 C167.510123,412.907653 167.654296,412.875709 167.800239,412.875709 L172.661675,412.875709 C173.21396,412.875709 173.661675,413.323424 173.661675,413.875709 C173.661675,414.021657 173.629729,414.165836 173.568078,414.298123 L171.821289,418.046326 Z" id="Path" fill="#52C7DB" fill-rule="nonzero"></path>
                <path d="M22.0002388,118 L26.8616753,118 C27.41396,118 27.8616753,118.447715 27.8616753,119 C27.8616753,119.145948 27.8297286,119.290127 27.7680781,119.422414 L25.3373079,124.638282 C25.1040149,125.138874 24.5090832,125.355563 24.0084907,125.12227 C23.7952477,125.022892 23.6238702,124.851511 23.5244953,124.638267 L21.093829,119.422399 C20.8605442,118.921803 21.077243,118.326875 21.5778393,118.09359 C21.7101229,118.031944 21.8542965,118 22.0002388,118 Z" id="Rectangle-Copy-4" fill="#52C7DB" fill-rule="nonzero" transform="translate(24.430838, 121.608053) scale(1, -1) translate(-24.430838, -121.608053) "></path>
                <path d="M163.300239,149 L168.161675,149 C168.71396,149 169.161675,149.447715 169.161675,150 C169.161675,150.145948 169.129729,150.290127 169.068078,150.422414 L166.637308,155.638282 C166.404015,156.138874 165.809083,156.355563 165.308491,156.12227 C165.095248,156.022892 164.92387,155.851511 164.824495,155.638267 L162.393829,150.422399 C162.160544,149.921803 162.377243,149.326875 162.877839,149.09359 C163.010123,149.031944 163.154296,149 163.300239,149 Z" id="Rectangle-Copy-3" fill="#52C7DB" fill-rule="nonzero" transform="translate(165.730838, 152.608053) scale(1, -1) translate(-165.730838, -152.608053) "></path>
                <path d="M252.300239,149 L257.161675,149 C257.71396,149 258.161675,149.447715 258.161675,150 C258.161675,150.145948 258.129729,150.290127 258.068078,150.422414 L255.637308,155.638282 C255.404015,156.138874 254.809083,156.355563 254.308491,156.12227 C254.095248,156.022892 253.92387,155.851511 253.824495,155.638267 L251.393829,150.422399 C251.160544,149.921803 251.377243,149.326875 251.877839,149.09359 C252.010123,149.031944 252.154296,149 252.300239,149 Z" id="Rectangle-Copy-5" fill="#52C7DB" fill-rule="nonzero" transform="translate(254.730838, 152.608053) scale(1, -1) translate(-254.730838, -152.608053) "></path>
                <ellipse id="Oval" fill="#A6A6A6" fill-rule="nonzero" cx="273.5" cy="535" rx="42.5" ry="6"></ellipse>
                <path d="M83,222 C81.896,222 81,221.104 81,220 C81,218.896 81.896,218 83,218 C84.104,218 85,218.896 85,220 C85,221.104 84.104,222 83,222 L83,222 Z M83,216 C80.791,216 79,217.791 79,220 C79,222.209 80.791,224 83,224 C85.209,224 87,222.209 87,220 C87,217.791 85.209,216 83,216 L83,216 Z M105,229.128 L99,223 L89.059,233.111 L85,229 L77,236.337 L77,216 C77,214.896 77.896,214 79,214 L103,214 C104.104,214 105,214.896 105,216 L105,229.128 L105,229.128 Z M105,240 C105,241.104 104.104,242 103,242 L97.832,242 L90.464,234.535 L99,225.999 L105,231.999 L105,240 L105,240 Z M79,242 C77.896,242 77,241.104 77,240 L77,239.061 L84.945,231.945 L95.001,242 L79,242 L79,242 Z M103,212 L79,212 C76.791,212 75,213.791 75,216 L75,240 C75,242.209 76.791,244 79,244 L103,244 C105.209,244 107,242.209 107,240 L107,216 C107,213.791 105.209,212 103,212 L103,212 Z" id="Fill-217" fill="#52C7DB" transform="translate(91.000000, 228.000000) rotate(13.000000) translate(-91.000000, -228.000000) "></path>
                <path d="M178,177 C176.896,177 176,176.104 176,175 C176,173.896 176.896,173 178,173 C179.104,173 180,173.896 180,175 C180,176.104 179.104,177 178,177 L178,177 Z M178,171 C175.791,171 174,172.791 174,175 C174,177.209 175.791,179 178,179 C180.209,179 182,177.209 182,175 C182,172.791 180.209,171 178,171 L178,171 Z M200,184.128 L194,178 L184.059,188.111 L180,184 L172,191.337 L172,171 C172,169.896 172.896,169 174,169 L198,169 C199.104,169 200,169.896 200,171 L200,184.128 L200,184.128 Z M200,195 C200,196.104 199.104,197 198,197 L192.832,197 L185.464,189.535 L194,180.999 L200,186.999 L200,195 L200,195 Z M174,197 C172.896,197 172,196.104 172,195 L172,194.061 L179.945,186.945 L190.001,197 L174,197 L174,197 Z M198,167 L174,167 C171.791,167 170,168.791 170,171 L170,195 C170,197.209 171.791,199 174,199 L198,199 C200.209,199 202,197.209 202,195 L202,171 C202,168.791 200.209,167 198,167 L198,167 Z" id="Fill-217-Copy" fill="#52C7DB" transform="translate(186.000000, 183.000000) scale(-1, 1) rotate(13.000000) translate(-186.000000, -183.000000) "></path>
                <path d="M137.77025,198.835943 C135.496188,198.079506 133.051125,197.514256 130.477812,197.148506 C130.828125,195.090568 131.014563,192.934068 131.073937,190.726506 L140.579875,190.726506 C140.367313,193.720193 139.3615,196.490631 137.77025,198.835943 L137.77025,198.835943 Z M128.077875,205.640318 C128.86875,203.729631 129.515938,201.664568 130.0135,199.489068 C132.148625,199.804943 134.195875,200.271631 136.135063,200.884381 C133.992812,203.167943 131.211688,204.848256 128.077875,205.640318 L128.077875,205.640318 Z M125.153063,206.105818 C124.770687,206.133131 124.3895,206.164006 124,206.164006 C123.6105,206.164006 123.2305,206.133131 122.846937,206.105818 C121.836375,204.001568 121.018188,201.659818 120.412563,199.174381 C121.592938,199.071068 122.78875,199.010506 124,199.010506 C125.21125,199.010506 126.407063,199.071068 127.588625,199.174381 C126.981812,201.659818 126.163625,204.001568 125.153063,206.105818 L125.153063,206.105818 Z M111.864938,200.884381 C113.804125,200.271631 115.851375,199.804943 117.9865,199.489068 C118.484063,201.664568 119.13125,203.729631 119.922125,205.640318 C116.788312,204.848256 114.008375,203.167943 111.864938,200.884381 L111.864938,200.884381 Z M110.22975,198.835943 C108.6385,196.490631 107.632688,193.720193 107.420125,190.726506 L116.926063,190.726506 C116.985438,192.934068 117.171875,195.090568 117.522188,197.148506 C114.948875,197.514256 112.503813,198.079506 110.22975,198.835943 L110.22975,198.835943 Z M110.22975,180.242068 C112.503813,180.998506 114.948875,181.564943 117.522188,181.929506 C117.171875,183.987443 116.985438,186.143943 116.926063,188.351506 L107.420125,188.351506 C107.632688,185.357818 108.6385,182.587381 110.22975,180.242068 L110.22975,180.242068 Z M119.922125,173.437693 C119.13125,175.348381 118.484063,177.413443 117.9865,179.588943 C115.851375,179.274256 113.804125,178.806381 111.864938,178.193631 C114.008375,175.910068 116.788312,174.229756 119.922125,173.437693 L119.922125,173.437693 Z M122.846937,172.972193 C123.2305,172.946068 123.6105,172.914006 124,172.914006 C124.3895,172.914006 124.770687,172.946068 125.153063,172.972193 C126.163625,175.076443 126.981812,177.419381 127.588625,179.903631 C126.407063,180.006943 125.21125,180.067506 124,180.067506 C122.78875,180.067506 121.592938,180.006943 120.412563,179.903631 C121.018188,177.419381 121.836375,175.076443 122.846937,172.972193 L122.846937,172.972193 Z M128.695375,190.726506 C128.63125,192.817693 128.44125,194.874443 128.083812,196.849256 C126.746688,196.732881 125.387,196.664006 124,196.664006 C122.613,196.664006 121.253313,196.732881 119.917375,196.849256 C119.55875,194.874443 119.36875,192.817693 119.305813,190.726506 L128.695375,190.726506 L128.695375,190.726506 Z M119.305813,188.351506 C119.36875,186.260318 119.55875,184.203568 119.917375,182.228756 C121.253313,182.345131 122.613,182.414006 124,182.414006 C125.387,182.414006 126.746688,182.345131 128.082625,182.228756 C128.44125,184.203568 128.63125,186.260318 128.695375,188.351506 L119.305813,188.351506 L119.305813,188.351506 Z M136.135063,178.193631 C134.195875,178.806381 132.148625,179.274256 130.0135,179.588943 C129.515938,177.413443 128.86875,175.348381 128.077875,173.437693 C131.211688,174.229756 133.992812,175.910068 136.135063,178.193631 L136.135063,178.193631 Z M137.77025,180.242068 C139.3615,182.587381 140.367313,185.357818 140.579875,188.351506 L131.073937,188.351506 C131.014563,186.143943 130.828125,183.987443 130.477812,181.929506 C133.051125,181.564943 135.496188,180.998506 137.77025,180.242068 L137.77025,180.242068 Z M124,170.539006 C113.50725,170.539006 105,179.045068 105,189.539006 C105,200.032943 113.50725,208.539006 124,208.539006 C134.49275,208.539006 143,200.032943 143,189.539006 C143,179.045068 134.49275,170.539006 124,170.539006 L124,170.539006 Z" id="Fill-110" fill="#52C7DB" transform="translate(124.000000, 189.539006) rotate(14.000000) translate(-124.000000, -189.539006) "></path>
                <path d="M70.5,138.25 C69.189,138.25 68.125,139.314 68.125,140.625 C68.125,141.936 69.189,143 70.5,143 C71.811,143 72.875,141.936 72.875,140.625 C72.875,139.314 71.811,138.25 70.5,138.25 L70.5,138.25 Z M61,154.875 C59.613,154.875 58.2735,154.7135 56.98625,154.439188 L51.3955,157.799812 L51.4703125,152.291 C47.184625,149.714125 44.375,145.453375 44.375,140.625 C44.375,132.755438 51.81825,126.375 61,126.375 C70.18175,126.375 77.625,132.755438 77.625,140.625 C77.625,148.49575 70.18175,154.875 61,154.875 L61,154.875 Z M61,124 C50.50725,124 42,131.444437 42,140.625 C42,145.872562 44.7846875,150.545375 49.125,153.591312 L49.125,162 L57.4481875,156.949563 C58.6000625,157.139562 59.7851875,157.25 61,157.25 C71.49275,157.25 80,149.80675 80,140.625 C80,131.444437 71.49275,124 61,124 L61,124 Z M51.5,138.25 C50.189,138.25 49.125,139.314 49.125,140.625 C49.125,141.936 50.189,143 51.5,143 C52.811,143 53.875,141.936 53.875,140.625 C53.875,139.314 52.811,138.25 51.5,138.25 L51.5,138.25 Z M61,138.25 C59.689,138.25 58.625,139.314 58.625,140.625 C58.625,141.936 59.689,143 61,143 C62.311,143 63.375,141.936 63.375,140.625 C63.375,139.314 62.311,138.25 61,138.25 L61,138.25 Z" id="Fill-190" fill="#52C7DB"></path>
                <path d="M251.130219,110.000488 C260.459115,110.070475 268,117.654604 268,127 C268,136.388841 260.388841,144 251,144 L168,144 C158.611159,144 151,136.388841 151,127 C151,117.611159 158.611159,110 168,110 L188,110 L188,103.5 C188,97.1487254 193.148725,92 199.5,92 C204.576326,92 208.884442,95.2890993 210.409499,99.8524495 C212.334917,90.2409207 220.821855,83 231,83 C242.59798,83 252,92.4020203 252,104 C252,106.085096 251.696115,108.099217 251.130219,110.000488 Z" id="Path" fill="#52C7DB" fill-rule="nonzero"></path>
                <path d="M216.46,126.45 C210.17,126.45 205.071,121.44 205.071,115.25 C205.071,109.06 210.17,104.04 216.46,104.04 C222.75,104.04 227.85,109.06 227.85,115.25 C227.85,121.44 222.75,126.45 216.46,126.45 L216.46,126.45 Z M234.688,132.25 L226.429,124.12 C228.591,121.77 229.92,118.67 229.92,115.25 C229.92,107.93 223.894,102 216.46,102 C209.026,102 203,107.93 203,115.25 C203,122.56 209.026,128.49 216.46,128.49 C219.672,128.49 222.618,127.38 224.932,125.53 L233.224,133.69 C233.629,134.09 234.284,134.09 234.688,133.69 C235.093,133.3 235.093,132.65 234.688,132.25 L234.688,132.25 Z" id="Fill-19" fill="#FFFFFE" transform="translate(218.995875, 117.995000) scale(-1, 1) translate(-218.995875, -117.995000) "></path>
                <path d="M175.987872,238.043451 C168.516571,238.043451 162.459947,232.092216 162.459947,224.739294 C162.459947,217.386371 168.516571,211.423257 175.987872,211.423257 C183.459173,211.423257 189.516985,217.386371 189.516985,224.739294 C189.516985,232.092216 183.459173,238.043451 175.987872,238.043451 L175.987872,238.043451 Z M197.639204,244.933104 L187.829112,235.275711 C190.397149,232.484214 191.975744,228.801813 191.975744,224.739294 C191.975744,216.044076 184.818023,209 175.987872,209 C167.15772,209 160,216.044076 160,224.739294 C160,233.422632 167.15772,240.466708 175.987872,240.466708 C179.803105,240.466708 183.302383,239.148171 186.050966,236.95061 L195.900256,246.643639 C196.381317,247.118787 197.15933,247.118787 197.639204,246.643639 C198.120265,246.180369 198.120265,245.408253 197.639204,244.933104 L197.639204,244.933104 Z" id="Fill-19-Copy" fill="#52C7DB" transform="translate(179.000000, 228.000000) scale(-1, 1) translate(-179.000000, -228.000000) "></path>
                <path d="M208.448991,82.9931948 C205.61073,83.8425016 200.767888,82 197.5,82 C187.91186,82 178.921566,87.1487254 178.921566,93.5 L178.921566,100 L166,100 C157.634811,100 145.824508,106.041967 144.407575,114 L32.2564103,114 C14.4416868,114 5.68434189e-14,99.5263201 5.68434189e-14,81.6721311 C5.68434189e-14,65.2640298 12.1970366,51.71101 28,49.6232136 L28,42 C28,28.745166 38.745166,18 52,18 C59.8090952,18 66.7470882,21.729632 71.129874,27.504791 C76.5446356,11.5115684 91.6779824,7.10542736e-15 109.5,7.10542736e-15 C131.867532,7.10542736e-15 150,18.1324676 150,40.5 L150,41.5 C150,42.0963782 149.98711,42.6897456 149.961592,43.2798389 C151.938783,41.8456617 154.370634,41 157,41 C163.627417,41 169,46.372583 169,53 L169,54.3442623 L189.74359,54.3442623 C205.006557,54.3442623 217.793581,61.2983235 221.143616,74.5189537 C213.303126,76.40026 213.938323,81.3505947 208.448991,82.9931948 Z" id="Path" fill="#52C7DB" fill-rule="nonzero"></path>
                <path d="M116.514366,42.1099864 C116.514366,42.3129864 116.475366,42.5049864 116.419366,42.6879864 L107.514366,33.1099864 L116.514366,26.1099864 L116.514366,42.1099864 L116.514366,42.1099864 Z M90.0703663,44.0559864 L99.0943663,34.4399864 L102.514366,37.0249864 L105.786366,34.4239864 L114.958366,44.0559864 C114.815366,44.0889864 90.2133663,44.0889864 90.0703663,44.0559864 L90.0703663,44.0559864 Z M88.5143663,42.1099864 L88.5143663,26.1099864 L97.5143663,33.1099864 L88.6093663,42.6879864 C88.5533663,42.5049864 88.5143663,42.3129864 88.5143663,42.1099864 L88.5143663,42.1099864 Z M115.514366,24.1099864 L102.514366,34.1099864 L89.5143663,24.1099864 L115.514366,24.1099864 L115.514366,24.1099864 Z M114.514366,22.1099864 L90.5143663,22.1099864 C88.3053663,22.1099864 86.5143663,23.9009864 86.5143663,26.1099864 L86.5143663,42.1099864 C86.5143663,44.3189864 88.3053663,46.1099864 90.5143663,46.1099864 L114.514366,46.1099864 C116.723366,46.1099864 118.514366,44.3189864 118.514366,42.1099864 L118.514366,26.1099864 C118.514366,23.9009864 116.723366,22.1099864 114.514366,22.1099864 L114.514366,22.1099864 Z" id="Fill-186" fill="#FFFFFE" transform="translate(102.514366, 34.109986) rotate(8.000000) translate(-102.514366, -34.109986) "></path>
                <path d="M155.514366,387.109986 C155.514366,387.312986 155.475366,387.504986 155.419366,387.687986 L146.514366,378.109986 L155.514366,371.109986 L155.514366,387.109986 L155.514366,387.109986 Z M129.070366,389.055986 L138.094366,379.439986 L141.514366,382.024986 L144.786366,379.423986 L153.958366,389.055986 C153.815366,389.088986 129.213366,389.088986 129.070366,389.055986 L129.070366,389.055986 Z M127.514366,387.109986 L127.514366,371.109986 L136.514366,378.109986 L127.609366,387.687986 C127.553366,387.504986 127.514366,387.312986 127.514366,387.109986 L127.514366,387.109986 Z M154.514366,369.109986 L141.514366,379.109986 L128.514366,369.109986 L154.514366,369.109986 L154.514366,369.109986 Z M153.514366,367.109986 L129.514366,367.109986 C127.305366,367.109986 125.514366,368.900986 125.514366,371.109986 L125.514366,387.109986 C125.514366,389.318986 127.305366,391.109986 129.514366,391.109986 L153.514366,391.109986 C155.723366,391.109986 157.514366,389.318986 157.514366,387.109986 L157.514366,371.109986 C157.514366,368.900986 155.723366,367.109986 153.514366,367.109986 L153.514366,367.109986 Z" id="Fill-186-Copy-2" fill="#52C7DB" transform="translate(141.514366, 379.109986) rotate(-33.000000) translate(-141.514366, -379.109986) "></path>
                <path d="M156.458103,275.669843 C156.458103,275.915134 156.411791,276.147134 156.345291,276.368259 L145.770603,264.794843 L156.458103,256.336509 L156.458103,275.669843 L156.458103,275.669843 Z M125.055853,278.021259 L135.771853,266.401926 L139.833103,269.525468 L143.718603,266.382593 L154.610353,278.021259 C154.440541,278.061134 125.225666,278.061134 125.055853,278.021259 L125.055853,278.021259 Z M123.208103,275.669843 L123.208103,256.336509 L133.895603,264.794843 L123.320916,276.368259 C123.254416,276.147134 123.208103,275.915134 123.208103,275.669843 L123.208103,275.669843 Z M155.270603,253.919843 L139.833103,266.003176 L124.395603,253.919843 L155.270603,253.919843 L155.270603,253.919843 Z M154.083103,251.503176 L125.583103,251.503176 C122.959916,251.503176 120.833103,253.667301 120.833103,256.336509 L120.833103,275.669843 C120.833103,278.339051 122.959916,280.503176 125.583103,280.503176 L154.083103,280.503176 C156.706291,280.503176 158.833103,278.339051 158.833103,275.669843 L158.833103,256.336509 C158.833103,253.667301 156.706291,251.503176 154.083103,251.503176 L154.083103,251.503176 Z" id="Fill-186-Copy" fill="#52C7DB" transform="translate(139.833103, 266.003176) rotate(26.000000) translate(-139.833103, -266.003176) "></path>
                <path d="M140,85.0777277 C140,85.0777277 136.872,79.0537277 136,77.0777277 L152.075,61.8567277 L140,85.0777277 L140,85.0777277 Z M128,72.0777277 L151,61.0777277 L135,76.0777277 C134.996,76.0737277 128,72.0777277 128,72.0777277 L128,72.0777277 Z M155,57.0777277 C153.844,57.6407277 124,72.0777277 124,72.0777277 C124,72.0777277 134.052,78.1367277 134,78.0777277 C133.983,78.0587277 140,89.0777277 140,89.0777277 C140,89.0777277 155.75,58.5777277 156,58.0777277 C156.219,57.4527277 155.75,56.7657277 155,57.0777277 L155,57.0777277 Z" id="Airplance" fill="#FFFFFE"></path>
                <path d="M58.6538462,76.0031059 L44.3461538,76.0031059 C43.688,76.0031059 43.1538462,76.5350189 43.1538462,77.1904118 C43.1538462,77.8469919 43.688,78.3777177 44.3461538,78.3777177 L58.6538462,78.3777177 C59.312,78.3777177 59.8461538,77.8469919 59.8461538,77.1904118 C59.8461538,76.5350189 59.312,76.0031059 58.6538462,76.0031059 L58.6538462,76.0031059 Z M58.6538462,83.1269412 L44.3461538,83.1269412 C43.688,83.1269412 43.1538462,83.6576669 43.1538462,84.3142471 C43.1538462,84.9708272 43.688,85.5015529 44.3461538,85.5015529 L58.6538462,85.5015529 C59.312,85.5015529 59.8461538,84.9708272 59.8461538,84.3142471 C59.8461538,83.6576669 59.312,83.1269412 58.6538462,83.1269412 L58.6538462,83.1269412 Z M59.8461538,66.5046588 C58.5298462,66.5046588 57.4615385,65.4408328 57.4615385,64.1300471 L57.4615385,59.3808236 L64.6153846,66.5046588 L59.8461538,66.5046588 L59.8461538,66.5046588 Z M64.6153846,90.2507765 C64.6153846,91.5615622 63.5470769,92.6253882 62.2307692,92.6253882 L40.7692308,92.6253882 C39.4529231,92.6253882 38.3846154,91.5615622 38.3846154,90.2507765 L38.3846154,61.7554353 C38.3846154,60.4446496 39.4529231,59.3808236 40.7692308,59.3808236 L55.0435385,59.3808236 C55.0220769,62.2244211 55.0769231,64.1300471 55.0769231,64.1300471 C55.0769231,66.7528058 57.2123462,68.8792706 59.8461538,68.8792706 L64.6153846,68.8792706 L64.6153846,90.2507765 L64.6153846,90.2507765 Z M57.4615385,57.0062118 L57.4615385,57.0394564 C57.3089231,57.0394564 56.6722308,56.9812784 55.0769231,57.0062118 L40.7692308,57.0062118 C38.1354231,57.0062118 36,59.1326766 36,61.7554353 L36,90.2507765 C36,92.8735352 38.1354231,95 40.7692308,95 L62.2307692,95 C64.8645769,95 67,92.8735352 67,90.2507765 L67,66.5046588 L57.4615385,57.0062118 L57.4615385,57.0062118 Z" id="Fill-222" fill="#FFFFFE" transform="translate(51.500000, 76.000000) rotate(-29.000000) translate(-51.500000, -76.000000) "></path>
                <path d="M68.6538462,186.003106 L54.3461538,186.003106 C53.688,186.003106 53.1538462,186.535019 53.1538462,187.190412 C53.1538462,187.846992 53.688,188.377718 54.3461538,188.377718 L68.6538462,188.377718 C69.312,188.377718 69.8461538,187.846992 69.8461538,187.190412 C69.8461538,186.535019 69.312,186.003106 68.6538462,186.003106 L68.6538462,186.003106 Z M68.6538462,193.126941 L54.3461538,193.126941 C53.688,193.126941 53.1538462,193.657667 53.1538462,194.314247 C53.1538462,194.970827 53.688,195.501553 54.3461538,195.501553 L68.6538462,195.501553 C69.312,195.501553 69.8461538,194.970827 69.8461538,194.314247 C69.8461538,193.657667 69.312,193.126941 68.6538462,193.126941 L68.6538462,193.126941 Z M69.8461538,176.504659 C68.5298462,176.504659 67.4615385,175.440833 67.4615385,174.130047 L67.4615385,169.380824 L74.6153846,176.504659 L69.8461538,176.504659 L69.8461538,176.504659 Z M74.6153846,200.250776 C74.6153846,201.561562 73.5470769,202.625388 72.2307692,202.625388 L50.7692308,202.625388 C49.4529231,202.625388 48.3846154,201.561562 48.3846154,200.250776 L48.3846154,171.755435 C48.3846154,170.44465 49.4529231,169.380824 50.7692308,169.380824 L65.0435385,169.380824 C65.0220769,172.224421 65.0769231,174.130047 65.0769231,174.130047 C65.0769231,176.752806 67.2123462,178.879271 69.8461538,178.879271 L74.6153846,178.879271 L74.6153846,200.250776 L74.6153846,200.250776 Z M67.4615385,167.006212 L67.4615385,167.039456 C67.3089231,167.039456 66.6722308,166.981278 65.0769231,167.006212 L50.7692308,167.006212 C48.1354231,167.006212 46,169.132677 46,171.755435 L46,200.250776 C46,202.873535 48.1354231,205 50.7692308,205 L72.2307692,205 C74.8645769,205 77,202.873535 77,200.250776 L77,176.504659 L67.4615385,167.006212 L67.4615385,167.006212 Z" id="Fill-222-Copy" fill="#52C7DB" transform="translate(61.500000, 186.000000) rotate(-29.000000) translate(-61.500000, -186.000000) "></path>
                <path d="M234.653846,169.003106 L220.346154,169.003106 C219.688,169.003106 219.153846,169.535019 219.153846,170.190412 C219.153846,170.846992 219.688,171.377718 220.346154,171.377718 L234.653846,171.377718 C235.312,171.377718 235.846154,170.846992 235.846154,170.190412 C235.846154,169.535019 235.312,169.003106 234.653846,169.003106 L234.653846,169.003106 Z M234.653846,176.126941 L220.346154,176.126941 C219.688,176.126941 219.153846,176.657667 219.153846,177.314247 C219.153846,177.970827 219.688,178.501553 220.346154,178.501553 L234.653846,178.501553 C235.312,178.501553 235.846154,177.970827 235.846154,177.314247 C235.846154,176.657667 235.312,176.126941 234.653846,176.126941 L234.653846,176.126941 Z M235.846154,159.504659 C234.529846,159.504659 233.461538,158.440833 233.461538,157.130047 L233.461538,152.380824 L240.615385,159.504659 L235.846154,159.504659 L235.846154,159.504659 Z M240.615385,183.250776 C240.615385,184.561562 239.547077,185.625388 238.230769,185.625388 L216.769231,185.625388 C215.452923,185.625388 214.384615,184.561562 214.384615,183.250776 L214.384615,154.755435 C214.384615,153.44465 215.452923,152.380824 216.769231,152.380824 L231.043538,152.380824 C231.022077,155.224421 231.076923,157.130047 231.076923,157.130047 C231.076923,159.752806 233.212346,161.879271 235.846154,161.879271 L240.615385,161.879271 L240.615385,183.250776 L240.615385,183.250776 Z M233.461538,150.006212 L233.461538,150.039456 C233.308923,150.039456 232.672231,149.981278 231.076923,150.006212 L216.769231,150.006212 C214.135423,150.006212 212,152.132677 212,154.755435 L212,183.250776 C212,185.873535 214.135423,188 216.769231,188 L238.230769,188 C240.864577,188 243,185.873535 243,183.250776 L243,159.504659 L233.461538,150.006212 L233.461538,150.006212 Z" id="Fill-222-Copy-2" fill="#52C7DB" transform="translate(227.500000, 169.000000) rotate(17.000000) translate(-227.500000, -169.000000) "></path>
                <path d="M111.157931,308.566776 L111.157931,350.633334 L118.701697,353.754815 L117.097,292.363097 C115.823049,294.010446 114.90115,295.316127 114.331304,296.28014 C113.761457,297.244152 113.250434,298.362552 112.798236,299.635339 L111.157931,308.566776 Z" id="Path-17" fill="#FFFFFF" fill-rule="nonzero"></path>
                <path d="M134.954649,327.407646 L117.877726,327.407646 C117.092187,327.407646 116.454649,328.05154 116.454649,328.844911 C116.454649,329.639718 117.092187,330.282176 117.877726,330.282176 L134.954649,330.282176 C135.740187,330.282176 136.377726,329.639718 136.377726,328.844911 C136.377726,328.05154 135.740187,327.407646 134.954649,327.407646 L134.954649,327.407646 Z M134.954649,336.031236 L117.877726,336.031236 C117.092187,336.031236 116.454649,336.673693 116.454649,337.468501 C116.454649,338.263308 117.092187,338.905766 117.877726,338.905766 L134.954649,338.905766 C135.740187,338.905766 136.377726,338.263308 136.377726,337.468501 C136.377726,336.673693 135.740187,336.031236 134.954649,336.031236 L134.954649,336.031236 Z M135.058225,319.268501 L117.981302,319.268501 C117.195764,319.268501 116.558225,319.910959 116.558225,320.705766 C116.558225,321.500574 117.195764,322.143031 117.981302,322.143031 L135.058225,322.143031 C135.843764,322.143031 136.481302,321.500574 136.481302,320.705766 C136.481302,319.910959 135.843764,319.268501 135.058225,319.268501 L135.058225,319.268501 Z M136.377726,315.909526 C134.806649,315.909526 133.531572,314.621736 133.531572,313.034996 L133.531572,307.285935 L142.070033,315.909526 L136.377726,315.909526 L136.377726,315.909526 Z M142.070033,344.654826 C142.070033,346.241566 140.794956,347.529356 139.22388,347.529356 L113.608495,347.529356 C112.037418,347.529356 110.762341,346.241566 110.762341,344.654826 L110.762341,310.160466 C110.762341,308.573725 112.037418,307.285935 113.608495,307.285935 L130.645572,307.285935 C130.619956,310.728185 130.685418,313.034996 130.685418,313.034996 C130.685418,316.209914 133.234149,318.784056 136.377726,318.784056 L142.070033,318.784056 L142.070033,344.654826 L142.070033,344.654826 Z M133.531572,304.411405 L133.531572,304.451649 C133.349418,304.451649 132.589495,304.381223 130.685418,304.411405 L113.608495,304.411405 C110.464918,304.411405 107.916187,306.985547 107.916187,310.160466 L107.916187,344.654826 C107.916187,347.829744 110.464918,350.403886 113.608495,350.403886 L139.22388,350.403886 C142.367456,350.403886 144.916187,347.829744 144.916187,344.654826 L144.916187,315.909526 L133.531572,304.411405 L133.531572,304.411405 Z" id="Fill-222-Copy-3" fill="#52C7DB" transform="translate(126.416187, 327.403886) rotate(17.000000) translate(-126.416187, -327.403886) "></path>
                <path d="M135.8125,140.375 L128.6875,140.375 C128.030812,140.375 127.5,140.907 127.5,141.5625 C127.5,142.219188 128.030812,142.75 128.6875,142.75 L135.8125,142.75 C136.469188,142.75 137,142.219188 137,141.5625 C137,140.907 136.469188,140.375 135.8125,140.375 L135.8125,140.375 Z M135.8125,133.25 L126.3125,133.25 C125.655812,133.25 125.125,133.780812 125.125,134.4375 C125.125,135.094188 125.655812,135.625 126.3125,135.625 L135.8125,135.625 C136.469188,135.625 137,135.094188 137,134.4375 C137,133.780812 136.469188,133.25 135.8125,133.25 L135.8125,133.25 Z M135.8125,147.5 L128.6875,147.5 C128.030812,147.5 127.5,148.032 127.5,148.6875 C127.5,149.344188 128.030812,149.875 128.6875,149.875 L135.8125,149.875 C136.469188,149.875 137,149.344188 137,148.6875 C137,148.032 136.469188,147.5 135.8125,147.5 L135.8125,147.5 Z M126.3125,128.5 L135.8125,128.5 C136.469188,128.5 137,127.969188 137,127.3125 C137,126.657 136.469188,126.125 135.8125,126.125 L126.3125,126.125 C125.655812,126.125 125.125,126.657 125.125,127.3125 C125.125,127.969188 125.655812,128.5 126.3125,128.5 L126.3125,128.5 Z M122.75,149.28125 C122.75,152.232188 120.139875,154.625 116.920563,154.625 L107.204437,154.625 C103.985125,154.625 101.375,152.232188 101.375,149.28125 L101.375,145.71875 C101.375,143.194125 103.290437,141.09225 105.857813,140.532937 C107.609375,141.9235 109.746875,142.75 112.0625,142.75 C114.378125,142.75 116.515625,141.9235 118.267188,140.532937 C120.834563,141.09225 122.75,143.194125 122.75,145.71875 L122.75,149.28125 L122.75,149.28125 Z M103.75,130.875 C103.75,125.628625 107.471625,121.375 112.0625,121.375 C116.653375,121.375 120.375,125.628625 120.375,130.875 C120.375,136.121375 116.653375,140.375 112.0625,140.375 C107.471625,140.375 103.75,136.121375 103.75,130.875 L103.75,130.875 Z M120.316813,138.419187 C121.835625,136.367188 122.75,133.73925 122.75,130.875 C122.75,124.317625 117.965563,119 112.0625,119 C106.159437,119 101.375,124.317625 101.375,130.875 C101.375,133.73925 102.289375,136.367188 103.808188,138.419187 C101.017563,139.383437 99,142.005437 99,145.125 L99,149.875 C99,153.809187 102.190813,157 106.125,157 L118,157 C121.934187,157 125.125,153.809187 125.125,149.875 L125.125,145.125 C125.125,142.005437 123.107437,139.383437 120.316813,138.419187 L120.316813,138.419187 Z" id="Fill-176" fill="#52C7DB" transform="translate(118.000000, 138.000000) rotate(-11.000000) translate(-118.000000, -138.000000) "></path>
            </g>
            <g id="in_box-man-copy" stroke-width="1" fill-rule="evenodd" transform="translate(449.000000, 492.000000) scale(-1, 1) translate(-449.000000, -492.000000) translate(370.000000, 336.000000)">
                <path d="M1.14608066,27.4584125 L64.6620156,9.04345108 C65.9185971,9.87995451 63.5206851,73.3019262 64.6620156,74.0773471 C75.809681,81.6510811 81.4599136,86.3112039 81.6127136,88.0577157 C82.0633704,93.2087457 78.7628554,96.9250339 72.4349089,103.099686 C70.4514996,105.035047 73.2405302,106.848094 71.8201684,108.308756 C70.1302013,110.046672 58.391882,107.684168 54.306113,106.392881 C46.4383679,103.906319 37.9437835,98.5385796 35.0589385,96.864353 C31.3307246,94.7006752 42.9189902,119.507089 48.7241191,119.844095 C51.4963686,120.005033 63.9712787,123.52171 69.1258828,123.070741 C72.7765701,122.751347 74.9026957,143.254544 73.7747593,143.353225 C71.5720492,143.545938 36.3709686,148.31626 34.5031214,146.789049 C33.7962087,146.211054 29.418747,138.900901 24.2726818,123.478245 C23.5242136,121.235101 19.8039607,105.823828 15.5202249,87.8342966 C15.09725,86.0580152 8.96554477,85.1270347 5.77365346,81.2453314 C3.5954499,78.5963878 1.967112,74.1674473 4.41580804,72.1562444 C6.86450408,70.1450414 12.2094379,73.8982935 11.6403789,71.4977331 C7.12097922,52.4327666 2.75683305,33.9447812 1.14608066,27.4584125 Z" id="Path-2" fill="#F8BD9D" fill-rule="nonzero"></path>
                <path d="M120.92019,115.423925 L107.400411,104.403064 C109.394417,102.449129 111.063694,100.113353 112.40824,97.3957368 C117.15131,87.8089805 115.693702,85.4987879 120.92019,77.0767025 C121.610054,75.9650401 123.900631,76.2161478 126.663974,72.9721292 C132.216,66.4543459 140.448569,54.6003634 146.846143,50.6482494 C149.593441,48.9511006 152.92784,55.5427464 151.671169,58.6286019 C149.26473,64.537804 145.066799,62.6613973 139.519924,68.6383647 C137.219482,71.117177 135.271539,74.2440466 133.676095,78.0189735 C133.76257,78.3290996 133.917924,78.4562949 134.142157,78.4005594 C136.525026,77.8082714 139.072671,77.3540221 140.651036,78.4005594 C141.668873,79.0754376 141.945018,79.7211493 142.074577,81.4769875 C142.11667,82.0474541 142.603278,82.4792746 142.878009,82.7958394 C144.088323,84.1904531 144.606277,82.6136014 145.739722,83.8997084 C146.618708,84.8970844 146.404017,85.0126222 147.170504,86.7170632 C147.508185,87.4679682 148.883447,86.8813268 149.432727,87.0752779 C150.772519,87.5483585 150.857833,88.6717403 150.411433,90.2153895 C149.028415,94.9978608 146.455601,98.7491249 141.776622,101.87496 C136.422421,105.451882 135.667758,101.93946 130.254584,105.456021 C126.911223,107.627969 123.799758,110.950604 120.92019,115.423925 Z" id="Path-20" fill="#F8BD9D" fill-rule="nonzero" transform="translate(129.672332, 82.898636) rotate(-10.000000) translate(-129.672332, -82.898636) "></path>
                <g id="Group" transform="translate(47.000000, 59.000000) scale(-1, 1) translate(-47.000000, -59.000000) translate(24.000000, 41.000000)" fill-rule="nonzero">
                    <g id="Left-eye" transform="translate(20.000000, 2.000000)">
                        <ellipse id="Oval" fill="#FFFFFF" transform="translate(13.096818, 17.380735) rotate(21.000000) translate(-13.096818, -17.380735) " cx="13.0968176" cy="17.3807355" rx="8" ry="14.5"></ellipse>
                        <ellipse id="Oval-Copy-2" fill="#3A2C2F" transform="translate(12.403986, 11.912014) rotate(15.000000) translate(-12.403986, -11.912014) " cx="12.4039859" cy="11.9120136" rx="3" ry="5.5"></ellipse>
                    </g>
                    <g id="Right-eye">
                        <ellipse id="Oval-Copy" fill="#FFFFFF" transform="translate(9.447312, 14.587630) rotate(10.000000) translate(-9.447312, -14.587630) " cx="9.44731172" cy="14.5876299" rx="7" ry="13.5"></ellipse>
                        <ellipse id="Oval" fill="#3A2C2F" transform="translate(9.000000, 8.500000) rotate(10.000000) translate(-9.000000, -8.500000) " cx="9" cy="8.5" rx="3" ry="5.5"></ellipse>
                    </g>
                </g>
                <path d="M14.6446638,74.5882526 C20.2818966,73.2823015 23.7991315,73.2823015 25.1963683,74.5882526 C28.3105083,77.4989362 34.4236249,98.1581522 38.0631553,106.753719 C41.286108,114.365444 45.9977509,119.68582 48.7241191,119.844095 C51.4963686,120.005033 69.8453959,123.253438 75,122.802469 C78.6506873,122.483075 83.4287315,144.725681 82.6453256,144.754815 C69.36157,145.248825 29.1928888,135.717175 25.1963683,123.739683 C24.4742583,121.575534 25.5472079,114.457226 23.9948823,106.753719 C21.8129471,95.925737 16.7744396,83.1646864 14.6446638,74.5882526 Z" id="Path-2-Copy" fill="#4A4A4A" fill-rule="nonzero"></path>
                <path d="M10.3705607,67.0138507 C15.3740711,65.8901771 18.3755668,65.1492647 19.3750479,64.7911135 C19.9183241,64.5964375 22.1036075,66.6664857 22.4752532,67.0138507 C25.5893931,69.9245343 34.4236249,98.1581522 38.0631553,106.753719 C38.8800903,108.683094 41.4562844,111.412816 40.8738874,114.615591 C39.1586256,124.048329 29.0380393,135.253095 25.1963683,123.739683 C24.4742583,121.575534 25.5472079,114.457226 23.9948823,106.753719 C21.8129471,95.925737 12.5003365,75.5902845 10.3705607,67.0138507 Z" id="Path-2-Copy-2" fill="#9B9B9B" fill-rule="nonzero"></path>
                <path d="M152.580543,182.539056 C152.868129,181.233375 153.879356,178.412011 153.179577,177.996449 C153.019618,177.901458 152.612477,177.89718 151.750446,177.996449 C150.875021,178.097261 149.616042,177.815988 149.496558,177.833107 C149.39068,177.848277 147.745679,177.437098 147.606006,177.233249 C146.862731,176.148466 145.881824,177.555143 145.787471,178.521922 C145.525218,181.209051 148.85996,182.060906 150.059942,186.970617 C151.010902,190.86146 150.192994,192.924873 148.107696,194.274932 C146.270269,195.464515 145.694935,192.168195 144.028604,189.36037 C141.9099,185.790282 142.289355,187.446014 140.669194,183.357813 C140.080617,181.872639 139.520258,181.524348 138.091619,181.619217 C134.505716,181.85734 134.540649,185.07585 132.315076,183.14624 C128.50457,179.842466 126.18504,174.204923 127.915722,169.687721 C129.057399,166.707864 133.804557,170.100386 137.291855,168.888258 C137.843652,168.696462 140.137433,166.85659 140.669194,166.481916 C141.660998,165.783098 143.520153,165.413672 145.787471,165.985376 C146.157332,166.078637 146.41368,166.35651 146.796134,166.481916 C146.965044,166.537301 147.690332,166.423904 147.860851,166.481916 C148.205618,166.599208 148.571382,167.298839 148.907959,167.438222 C149.46187,167.667606 150.527981,167.465518 151.046976,167.700927 C151.466276,167.891115 151.492818,168.809481 151.914275,168.888258 C152.80662,169.055051 153.785576,169.145598 154.229508,169.454212 C154.83565,169.875592 154.780814,170.55437 155.243103,171.016092 C158.240897,174.01021 157.053684,182.727787 156.859054,183.694302 C156.829815,183.839505 156.782152,183.965341 156.718612,184.072653 L152.580543,182.539056 Z" id="Path" fill="#F8BD9D" fill-rule="nonzero"></path>
                <path d="M38.6557858,151.290224 L72.8178242,149 L72.8178242,156.641495 C88.0424187,161.501413 96.1311978,163.931372 97.0841615,163.931372 C98.0371253,163.931372 110.369608,164.041022 134.081609,164.260324 L133.072821,186.213693 L99.6280611,187.719931 L81.0332847,179.500961 L99.6280611,237.206568 L35,242.729029 L37.4660077,184.122474 L38.6557858,162.60104 L38.6557858,151.290224 Z" id="Path-6" fill="#3A2C2F" fill-rule="nonzero"></path>
                <rect id="Rectangle" fill="#E0D768" fill-rule="nonzero" x="34.2520325" y="292.432749" width="9.50894309" height="4.19298246"></rect>
                <rect id="Rectangle-Copy-2" fill="#E0D768" fill-rule="nonzero" x="73.2666667" y="292.432749" width="8.3902439" height="4.19298246"></rect>
                <path d="M40.0641111,238.804055 C40.5169979,248.683822 40.7434413,254.854974 40.7434413,257.317512 C40.7434413,259.671388 29.1898539,277.44905 29.1898539,279.763573 C29.1898539,282.709717 29.1898539,287.489901 29.1898539,294.104126 C37.8703178,294.104126 44.8277862,294.49965 50.0622591,295.290698 C51.8706898,284.197517 61.6862363,271.374234 62.467082,258.888889 C62.8306061,253.076316 63.1607823,247.117648 63.4576106,241.012885 L66.6298448,244.417195 L67.8834825,292.468137 L86.5200126,292.468137 L86.5200126,233.944603 L40.0641111,238.804055 Z" id="Path-15" fill="#3A2C2F" fill-rule="nonzero"></path>
                <path d="M33.9705565,295.94796 L33.5528455,305.767205 L38.9261141,306.317477 L39.5100956,303.229968 C41.2126258,304.137544 42.3047879,304.85436 42.7865817,305.380415 C45.6867805,308.547049 46.8246535,310.80473 48.1176327,311.204425 C53.9646256,313.011888 65.0727269,309.089831 65.0727269,308.355576 C65.0727269,304.717799 57.7697859,306.566454 52.1460699,303.850958 C48.8498419,302.259325 46.1133555,300.3589 43.9366108,298.149684 L43.9366108,295.22807 L33.9705565,295.94796 Z" id="Path-16" fill="#3A2C2E" fill-rule="nonzero"></path>
                <path d="M73.125028,293.851468 L72.7073171,303.670714 L76.6822117,304.220986 L77.2661931,301.133477 C78.9687234,302.041053 80.0608855,302.757869 80.5426793,303.283924 C83.442878,306.450558 87.9822612,307.535035 89.2752404,307.93473 C95.1222332,309.742193 104.227198,304.198018 104.227198,303.463763 C104.227198,299.825986 96.5313394,303.428776 90.9076234,300.71328 C87.6113953,299.121646 84.539757,297.568284 81.6927084,296.053193 L81.6927084,293.131579 L73.125028,293.851468 Z" id="Path-16-Copy" fill="#3A2C2E" fill-rule="nonzero"></path>
                <polygon id="Path-13" fill="#52C7DB" fill-rule="nonzero" points="56.0404095 150.757699 56.0404095 166.131204 60.8699781 166.131204 65.5621854 220.567842 75.9296056 228.362138 82.0719363 218.117172 66.3586123 164.382195 70.4700544 163.040139 63.9549236 150.203026"></polygon>
                <path d="M52.5278663,32.2706461 L31.3855588,29.525273 L15.734836,47.7939502 L19.7627805,65.3098502 L10.5153838,67.6248768 C3.94835332,45.6697661 0.664838109,32.2931136 0.664838109,27.494919 C0.664838109,18.5236554 13.076728,8.50463794 31.9635542,1.92971174 C43.6111458,-2.12507515 65.1990839,3.71140944 65.1990839,8.29373208 C65.1990839,11.375342 65.1990839,16.8205824 65.1990839,24.6294532 L56.2833692,19.3753933 L52.5278663,32.2706461 Z" id="Path-18" fill="#9B9B9B" fill-rule="nonzero"></path>
            </g>
            <path d="M459.860742,380.566354 C460.842632,379.697663 466.32927,373.745486 471.005118,373.745486 C473.490659,373.745486 475.37864,376.019109 476.669061,380.566354 C475.514321,373.842561 473.626339,370.480665 471.005118,370.480665 C466.532791,370.480665 458.878852,381.435045 459.860742,380.566354 Z" id="Path-19" fill="#9B9B9B" fill-rule="nonzero"></path>
            <path d="M486.860742,382.566354 C487.842632,381.697663 493.32927,375.745486 498.005118,375.745486 C500.490659,375.745486 502.37864,378.019109 503.669061,382.566354 C502.514321,375.842561 500.626339,372.480665 498.005118,372.480665 C493.532791,372.480665 485.878852,383.435045 486.860742,382.566354 Z" id="Path-19-Copy" fill="#9B9B9B" fill-rule="nonzero" transform="translate(495.221882, 377.548041) scale(-1, 1) translate(-495.221882, -377.548041) "></path>
            <polygon id="Path-21" fill="#402E34" fill-rule="nonzero" points="486.891576 490.976176 440.436451 496.985098 417.64912 437.934799 397.865561 454.162057 432.074115 526.146488 486.891576 509.216513"></polygon>
        </g>
    </g>
</svg>